<svg width="512" height="512" viewBox="0 0 512 512" fill="none" xmlns="http://www.w3.org/2000/svg">
<path d="M512 240C488.533 237.866 450.133 247.466 450.133 247.466C405.333 261.333 418.133 242.133 418.133 242.133C403.2 246.4 357.333 256 357.333 256C320 262.4 329.6 240 336 229.333C338.133 225.066 341.333 220.8 343.467 216.533C370.133 163.2 391.467 145.066 391.467 145.066C324.267 161.066 348.8 106.666 348.8 106.666C329.6 112 330.667 104.533 330.667 104.533C329.6 60.7998 318.933 12.7998 318.933 12.7998C282.667 85.3331 261.333 54.3998 261.333 54.3998C252.8 119.466 217.6 68.2665 217.6 68.2665C218.667 85.3331 208 128 204.8 139.733C203.733 141.866 203.733 145.066 202.667 147.2C192 172.8 177.067 150.4 177.067 150.4C157.867 124.8 144 109.866 136.533 101.333C120.533 85.3331 86.4 63.9998 73.6 37.3331C77.8667 136.533 46.9333 116.266 46.9333 116.266C57.6 132.266 60.8 147.2 61.8667 156.8C62.9333 165.333 59.7333 174.933 52.2667 180.266C37.3333 192 17.0667 192 17.0667 192C41.6 201.6 59.7333 232.533 67.2 248.533C69.3333 252.8 66.1333 258.133 61.8667 259.2C10.6667 265.6 0 250.666 0 250.666C7.46667 278.4 34.1333 308.266 51.2 324.266C57.6 330.666 65.0667 336 72.5333 341.333C106.667 363.733 65.0667 380.8 65.0667 380.8C84.2667 380.8 101.333 386.133 101.333 386.133C123.733 392.533 153.6 397.866 168.533 400C174.933 401.066 180.267 404.266 184.533 408.533C237.867 469.333 317.867 474.666 317.867 474.666C368 473.6 410.667 499.2 410.667 499.2C362.667 451.2 365.867 425.6 365.867 425.6C365.867 362.666 453.333 393.6 453.333 393.6C400 339.2 474.667 307.2 474.667 307.2C436.267 292.266 512 240 512 240Z" fill="#ED7161"/>
<path d="M309.334 55.4661C309.334 55.4661 302.934 77.8661 292.267 109.866C281.601 142.933 266.667 185.599 249.601 228.266C241.067 249.599 232.534 270.933 225.067 291.199C216.534 311.466 209.067 329.599 201.601 345.599C192.001 366.933 186.667 377.599 177.067 397.866C177.067 398.933 176.001 398.933 174.934 398.933C173.867 398.933 173.867 397.866 173.867 396.799C182.401 378.666 188.801 366.933 198.401 345.599C205.867 329.599 213.334 311.466 221.867 292.266C230.401 271.999 238.934 251.733 247.467 230.399C264.534 187.733 279.467 145.066 290.134 111.999C300.801 78.9327 307.201 57.5994 307.201 57.5994C308.267 54.3994 309.334 54.3994 309.334 55.4661Z" fill="#D56455"/>
<path d="M254.934 215.466C225.067 186.666 222.934 87.4662 222.934 83.1995C222.934 82.1328 222.934 82.1328 224.001 82.1328C225.067 82.1328 225.067 82.1328 225.067 83.1995C225.067 84.2661 228.267 185.599 256.001 213.333C256.001 214.399 256.001 214.399 254.934 215.466ZM247.467 233.599C246.401 232.533 246.401 231.466 247.467 231.466C247.467 231.466 298.667 216.533 357.334 165.333H358.401V166.399C299.734 217.599 248.534 233.599 247.467 233.599ZM489.601 247.466C395.734 312.533 251.734 355.199 190.934 389.333C182.401 393.599 178.134 396.799 178.134 396.799H176.001C174.934 395.733 176.001 394.666 176.001 394.666C226.134 359.466 388.267 314.666 487.467 246.399H488.534L489.601 247.466ZM382.934 479.999C380.801 478.933 248.534 391.466 173.867 399.999C172.801 399.999 172.801 399.999 172.801 398.933C172.801 397.866 172.801 397.866 173.867 397.866C248.534 388.266 381.867 476.799 382.934 477.866C384.001 477.866 384.001 478.933 382.934 479.999Z" fill="#D56455"/>
<path d="M174.933 396.8C173.867 395.733 139.733 343.466 81.0668 307.2C74.6668 302.933 68.2668 299.733 61.8668 296.533C49.0668 290.133 18.1335 275.2 7.4668 261.333V260.266H8.53346C19.2001 273.066 49.0668 288 61.8668 294.4C68.2668 297.6 75.7335 300.8 81.0668 305.066C139.733 342.4 173.867 394.666 173.867 394.666C176 395.733 176 396.8 174.933 396.8ZM172.8 398.933C171.733 398.933 144 374.4 85.3335 377.6C84.2668 377.6 84.2668 377.6 84.2668 376.533C84.2668 375.466 84.2668 375.466 85.3335 375.466C145.067 373.333 172.8 396.8 173.867 397.866C173.867 397.866 173.867 398.933 172.8 398.933ZM179.2 392.533C179.2 393.6 179.2 394.666 178.133 394.666C177.067 394.666 176 394.666 176 393.6C173.867 381.866 163.2 321.066 144 259.2C133.333 226.133 112 124.8 81.0668 68.2662V67.1995C91.7335 60.7995 165.333 307.2 179.2 392.533ZM411.733 370.133C348.8 356.266 313.6 336 313.6 336C312.533 334.933 313.6 333.866 314.667 333.866C314.667 333.866 349.867 354.133 411.733 368C412.8 368 412.8 369.066 411.733 370.133C412.8 370.133 412.8 370.133 411.733 370.133ZM337.067 386.133C291.2 378.666 256 358.4 256 358.4C254.933 357.333 256 356.266 257.067 356.266C257.067 356.266 292.267 376.533 338.133 384C338.133 384 338.133 385.066 337.067 386.133ZM450.133 309.333C418.133 309.333 396.8 298.666 396.8 298.666C395.733 297.6 396.8 296.533 397.867 296.533C397.867 296.533 420.267 307.2 452.267 307.2C453.333 307.2 453.333 307.2 453.333 308.266C453.333 309.333 453.333 309.333 452.267 309.333H450.133ZM377.6 306.133C377.6 280.533 406.4 252.8 407.467 251.733H408.533V252.8C408.533 252.8 379.733 280.533 379.733 306.133C379.733 307.2 377.6 308.266 377.6 306.133ZM324.267 273.066C324.267 273.066 325.333 272 325.333 273.066C325.333 273.066 326.4 274.133 325.333 274.133C325.333 274.133 306.133 305.066 310.4 337.066C310.4 338.133 310.4 338.133 309.333 338.133C305.067 338.133 306.133 300.8 324.267 273.066Z" fill="#D56455"/>
<path d="M158.933 309.333C158.933 309.333 116.266 269.866 75.7327 257.066C74.666 257.066 74.666 256 74.666 256C74.666 254.933 75.7327 254.933 75.7327 254.933C117.333 267.733 158.933 307.2 159.999 308.266C161.066 308.266 159.999 310.4 158.933 309.333ZM130.133 208C130.133 208 159.999 178.133 159.999 157.866C159.999 156.8 159.999 156.8 161.066 156.8C162.133 156.8 162.133 156.8 162.133 157.866C162.133 179.2 133.333 208 132.266 210.133C131.199 210.133 129.066 209.066 130.133 208ZM237.866 259.2C236.799 259.2 236.799 259.2 237.866 259.2C236.799 258.133 212.266 226.133 197.333 176C197.333 174.933 197.333 174.933 198.399 174.933C199.466 174.933 199.466 174.933 199.466 176C213.333 225.066 237.866 258.133 238.933 258.133C238.933 258.133 238.933 259.2 237.866 259.2ZM138.666 469.333C137.599 469.333 137.599 469.333 138.666 469.333C136.533 468.266 135.466 467.2 136.533 466.133C137.599 464 151.466 419.2 177.066 391.466C178.133 390.4 180.266 390.4 181.333 391.466C182.399 392.533 182.399 394.666 181.333 395.733C155.733 421.333 141.866 467.2 141.866 467.2C140.799 468.266 139.733 469.333 138.666 469.333Z" fill="#D56455"/>
</svg>
