<svg width="512" height="512" viewBox="0 0 512 512" fill="none" xmlns="http://www.w3.org/2000/svg">
<path d="M76.9614 328.56C51.7614 282.32 82.1614 228.24 120.561 199.36C170.721 158.88 234.721 140.88 295.441 119.28C356.161 97.6801 418.561 69.1201 455.121 16.0801C452.721 54.1601 450.401 92.2401 448.001 130.24C445.361 172.88 442.641 215.92 430.241 256.8C414.081 310.24 382.081 363.92 330.961 386.4C162.241 460.32 89.1214 350.24 77.0414 328.64L76.9614 328.56Z" fill="#66BB6A"/>
<path d="M393.521 140C390.081 137.44 385.281 138.16 382.481 141.44C367.921 159.12 350.001 173.36 332.321 184.96C330.161 178.72 326.961 172.8 322.881 167.68C319.841 163.92 314.001 164 310.801 167.68C308.241 170.64 308.241 174.96 310.641 178C314.321 182.64 316.881 188.08 318.241 193.84C312.241 197.44 306.401 200.8 300.881 203.76C289.681 209.84 278.081 215.76 266.881 221.44C261.761 224.08 256.561 226.72 251.281 229.44C247.956 215.926 241.331 203.447 232.001 193.12C231.237 192.285 230.307 191.62 229.271 191.167C228.234 190.715 227.114 190.484 225.983 190.492C224.852 190.5 223.735 190.745 222.704 191.211C221.674 191.678 220.753 192.355 220.001 193.2C218.724 194.647 218.019 196.511 218.019 198.44C218.019 200.37 218.724 202.233 220.001 203.68C228.545 213.045 234.259 224.64 236.481 237.12C224.001 243.84 211.601 250.88 199.681 258.72C190.943 264.537 182.48 270.757 174.321 277.36C173.521 259.44 167.521 241.68 157.041 227.2C154.241 223.36 148.721 222.72 145.121 225.92C143.662 227.228 142.735 229.026 142.514 230.972C142.292 232.919 142.793 234.879 143.921 236.48C155.281 252.16 160.321 272.56 157.521 291.68C102.001 342.72 63.2806 412.32 50.1606 486.56C49.3606 490.96 52.4806 495.2 56.8806 495.84C61.2006 496.48 65.1206 493.52 65.9206 489.28C78.5606 417.92 116.001 351.04 169.681 302.24C206.081 293.28 244.081 293.44 280.321 302.8C282.336 303.37 284.495 303.118 286.325 302.098C288.155 301.078 289.505 299.374 290.081 297.36C290.393 296.336 290.495 295.259 290.381 294.195C290.267 293.13 289.938 292.1 289.415 291.165C288.892 290.231 288.185 289.412 287.337 288.758C286.489 288.104 285.517 287.629 284.481 287.36C255.273 279.808 224.908 277.8 194.961 281.44C199.361 278.24 203.761 275.04 208.321 272.08C222.641 262.64 238.001 254.24 253.281 246.16C276.561 241.92 300.561 242.8 323.441 248.88C327.601 250 331.921 247.76 333.281 243.68C334.641 239.36 332.241 234.72 327.921 233.52C315.281 230.16 302.401 228.24 289.441 227.68C295.761 224.4 302.161 221.12 308.401 217.68C315.761 213.68 323.521 209.28 331.521 204.32C345.623 201.517 360.161 201.762 374.161 205.04C378.081 206 382.081 203.92 383.281 200.16L383.601 199.2C383.91 198.208 384.011 197.162 383.897 196.128C383.783 195.094 383.457 194.096 382.939 193.194C382.42 192.293 381.721 191.508 380.885 190.89C380.049 190.271 379.094 189.832 378.081 189.6C371.281 188 364.401 187.04 357.521 186.64C370.801 176.56 383.681 164.96 394.961 151.28C397.841 147.76 397.041 142.56 393.441 139.84L393.521 140Z" fill="#00897B"/>
</svg>
