<svg width="512" height="512" viewBox="0 0 512 512" fill="none" xmlns="http://www.w3.org/2000/svg">
<g clip-path="url(#clip0_1373_2)">
<path d="M256.001 403.2C337.297 403.2 403.201 337.296 403.201 256C403.201 174.703 337.297 108.8 256.001 108.8C174.704 108.8 108.801 174.703 108.801 256C108.801 337.296 174.704 403.2 256.001 403.2Z" fill="#FCD462"/>
<path d="M325.761 126.081C332.161 146.56 336.641 168.32 337.28 190.721C341.12 279.681 280.96 358.401 202.88 392.962C219.52 399.362 237.44 403.202 256 403.202C337.28 403.202 403.2 337.282 403.2 256.002C403.2 199.68 371.84 151.04 325.761 126.081ZM256 0C243.84 0 234.24 9.59969 234.24 21.76V57.6003C234.24 69.7606 243.84 79.3603 256 79.3603C268.16 79.3603 277.76 69.7606 277.76 57.6003V21.76C277.76 9.59969 268.16 0 256 0ZM256 432.641C243.84 432.641 234.24 442.24 234.24 454.401V490.241C234.24 502.401 243.84 512.001 256 512.001C268.16 512.001 277.76 502.401 277.76 490.241V454.401C277.76 442.24 268.16 432.641 256 432.641ZM512 256C512 243.84 502.4 234.24 490.24 234.24H454.4C442.239 234.24 432.64 243.84 432.64 256C432.64 268.16 442.239 277.76 454.4 277.76H490.24C502.4 277.76 512 268.16 512 256ZM79.3603 256C79.3603 243.84 69.7606 234.24 57.6003 234.24H21.76C9.59969 234.24 0 243.84 0 256C0 268.16 9.59969 277.76 21.76 277.76H57.6003C69.7596 277.76 79.3603 268.16 79.3603 256ZM437.12 74.8797C428.8 66.5593 414.721 66.5593 406.4 74.8797L380.8 100.48C372.48 108.8 372.48 122.879 380.8 131.2C389.121 139.52 403.2 139.52 411.52 131.2L437.12 105.6C445.441 97.2805 445.441 83.2002 437.12 74.8797ZM131.2 380.8C122.879 372.48 108.8 372.48 100.48 380.8L74.8797 406.4C66.5593 414.721 66.5593 428.8 74.8797 437.12C83.2002 445.441 97.2794 445.441 105.6 437.12L131.2 411.52C139.52 403.2 139.52 389.76 131.2 380.8ZM437.12 437.12C445.441 428.8 445.441 414.721 437.12 406.4L411.52 380.8C403.2 372.48 389.121 372.48 380.8 380.8C372.48 389.121 372.48 403.2 380.8 411.52L406.4 437.12C414.721 445.441 428.8 445.441 437.12 437.12ZM131.2 131.2C139.52 122.879 139.52 108.8 131.2 100.48L105.6 74.8797C97.2794 66.5593 83.2002 66.5593 74.8797 74.8797C66.5593 83.2002 66.5593 97.2794 74.8797 105.6L100.48 131.2C108.8 139.52 122.24 139.52 131.2 131.2Z" fill="#F6C358"/>
</g>
<defs>
<clipPath id="clip0_1373_2">
<rect width="512" height="512" fill="white"/>
</clipPath>
</defs>
</svg>
