<svg width="512" height="512" viewBox="0 0 512 512" fill="none" xmlns="http://www.w3.org/2000/svg">
<path d="M407.355 115.653C406.88 114.893 406.211 114.275 405.416 113.864L260.602 39.0616C259.179 38.3269 257.601 37.9444 256 37.9463C254.399 37.9482 252.822 38.3345 251.402 39.0726L106.572 114.329C105.78 114.741 105.113 115.359 104.641 116.117L255.999 203.042L407.355 115.653Z" fill="#398622"/>
<path d="M511.999 323.791C511.999 402.161 380.659 435.911 302.559 442.371C294.209 443.051 287.049 436.831 286.379 428.651C285.689 420.401 291.829 413.151 300.089 412.471C359.999 407.531 481.999 379.331 481.999 323.791C481.999 298.851 452.289 273.651 403.299 256.161V224.491C453.399 240.731 511.999 272.811 511.999 323.791Z" fill="#25292D"/>
<path d="M216.57 442.962L141.57 472.962C130.41 477.432 118.78 467.572 121.35 455.832L127.31 428.542C47.41 407.362 0 368.512 0 323.792C0 273.522 56.99 241.622 106.64 225.172V256.902C58.88 274.362 30 299.202 30 323.792C30 352.972 70.41 382.142 133.71 399.202L140.35 368.832C142.89 357.192 157.37 353.042 165.7 361.522L221.7 418.522C229.21 426.172 226.49 438.992 216.57 442.962Z" fill="#25292D"/>
<path d="M407.35 115.651L256 203.041V37.9414C257.58 37.9414 259.16 38.3114 260.6 39.0614L405.42 113.861C406.23 114.281 406.89 114.911 407.35 115.651Z" fill="#2E7818"/>
<path d="M255.999 193.042L104.641 116.117C104.143 116.911 103.878 117.828 103.877 118.765V289.013C103.877 289.942 104.136 290.853 104.624 291.643C105.113 292.433 105.812 293.071 106.643 293.486L251.609 365.868C252.973 366.549 254.475 366.909 256 366.92L266 275.757L255.999 193.042Z" fill="#2E7818"/>
<path d="M407.355 115.652L256 193.041V366.92C257.535 366.933 259.052 366.591 260.433 365.922L405.3 295.806C406.146 295.397 406.859 294.758 407.358 293.962C407.858 293.166 408.122 292.245 408.122 291.305V118.305C408.12 117.367 407.854 116.447 407.355 115.652Z" fill="#3A8D21"/>
</svg>
