<svg width="359" height="495" viewBox="0 0 359 495" fill="none" xmlns="http://www.w3.org/2000/svg">
<path d="M341.333 418.134V477.867C341.32 482.389 339.517 486.722 336.32 489.92C333.122 493.118 328.789 494.92 324.267 494.934H34.1333C25.0806 494.934 16.3987 491.338 9.99742 484.936C3.59618 478.535 0 469.853 0 460.8V418.134H341.333Z" fill="#D8D8D8"/>
<path d="M34.1334 0H51.2V426.667H34.1334C29.6493 426.661 25.2082 427.54 21.0645 429.254C16.9207 430.967 13.1556 433.481 9.98492 436.652C6.81423 439.822 4.30021 443.587 2.58684 447.731C0.873464 451.875 -0.00558884 456.316 2.67359e-05 460.8V34.1333C2.67359e-05 25.0806 3.59621 16.3987 9.99745 9.99742C16.3987 3.59618 25.0806 0 34.1334 0Z" fill="#4A895A"/>
<path d="M358.399 17.0667V409.6C358.386 414.122 356.584 418.455 353.386 421.653C350.188 424.851 345.855 426.653 341.333 426.667H34.1328V0H341.333C345.855 0.0135059 350.188 1.81593 353.386 5.01363C356.584 8.21133 358.386 12.5445 358.399 17.0667Z" fill="#5FC77D"/>
<path d="M221.866 307.2V358.4C221.866 362.927 220.068 367.268 216.867 370.468C213.667 373.669 209.326 375.467 204.799 375.467H187.733C183.206 375.467 178.865 373.669 175.665 370.468C172.464 367.268 170.666 362.927 170.666 358.4V307.2H221.866Z" fill="#925C4C"/>
<path d="M238.976 230.4L295.092 292.693C296.878 294.674 298.053 297.131 298.472 299.766C298.891 302.401 298.538 305.1 297.454 307.539C296.371 309.977 294.603 312.048 292.367 313.503C290.13 314.957 287.52 315.732 284.852 315.733H107.708C105.04 315.732 102.43 314.957 100.193 313.503C97.956 312.048 96.1889 309.977 95.1053 307.539C94.0217 305.1 93.6682 302.401 94.0875 299.766C94.5069 297.131 95.6811 294.674 97.468 292.693L153.6 230.4L196.267 221.866L238.976 230.4Z" fill="#4A895A"/>
<path d="M235.417 153.6L286.856 209.664C288.483 211.455 289.551 213.682 289.928 216.073C290.304 218.463 289.973 220.911 288.975 223.116C287.977 225.32 286.356 227.185 284.312 228.479C282.267 229.773 279.888 230.441 277.469 230.4H115.088C112.669 230.441 110.29 229.773 108.246 228.479C106.201 227.185 104.58 225.32 103.582 223.116C102.584 220.911 102.253 218.463 102.63 216.073C103.006 213.682 104.074 211.455 105.702 209.664L157.115 153.6L196.266 145.066L235.417 153.6Z" fill="#53A064"/>
<path d="M262.683 153.6H129.853C127.824 153.547 125.852 152.915 124.17 151.779C122.488 150.643 121.165 149.05 120.358 147.188C119.551 145.326 119.293 143.271 119.615 141.267C119.936 139.263 120.824 137.393 122.173 135.876L190.346 54.0157C191.066 53.143 191.971 52.4404 192.994 51.958C194.018 51.4757 195.136 51.2256 196.268 51.2256C197.399 51.2256 198.517 51.4757 199.541 51.958C200.565 52.4404 201.469 53.143 202.19 54.0157L270.388 135.876C271.738 137.394 272.626 139.267 272.947 141.273C273.267 143.28 273.007 145.336 272.197 147.199C271.387 149.063 270.06 150.655 268.375 151.789C266.689 152.923 264.714 153.552 262.683 153.6Z" fill="#4A895A"/>
<path d="M281.599 469.333H238.932C236.669 469.333 234.499 468.434 232.898 466.834C231.298 465.234 230.399 463.063 230.399 460.8C230.399 458.537 231.298 456.366 232.898 454.766C234.499 453.166 236.669 452.267 238.932 452.267H281.599C283.862 452.267 286.033 453.166 287.633 454.766C289.233 456.366 290.132 458.537 290.132 460.8C290.132 463.063 289.233 465.234 287.633 466.834C286.033 468.434 283.862 469.333 281.599 469.333ZM204.799 469.333H68.2658C66.0026 469.333 63.8321 468.434 62.2318 466.834C60.6315 465.234 59.7324 463.063 59.7324 460.8C59.7324 458.537 60.6315 456.366 62.2318 454.766C63.8321 453.166 66.0026 452.267 68.2658 452.267H204.799C207.062 452.267 209.233 453.166 210.833 454.766C212.433 456.366 213.332 458.537 213.332 460.8C213.332 463.063 212.433 465.234 210.833 466.834C209.233 468.434 207.062 469.333 204.799 469.333Z" fill="#B7B7B7"/>
</svg>
