<svg width="512" height="512" viewBox="0 0 512 512" fill="none" xmlns="http://www.w3.org/2000/svg">
<g clip-path="url(#clip0_1373_15)">
<path d="M511.999 255.999C511.999 248.584 505.988 242.572 498.572 242.572H477.445L497.558 222.459C502.802 217.215 502.802 208.713 497.558 203.47C492.314 198.227 483.813 198.226 478.569 203.47L439.466 242.573H419.591L439.704 222.46C444.948 217.216 444.948 208.714 439.704 203.471C434.459 198.227 425.958 198.227 420.715 203.471L381.613 242.574H288.416L354.317 176.673H409.616C417.032 176.673 423.042 170.662 423.042 163.246C423.042 155.83 417.032 149.819 409.616 149.819H381.172L395.226 135.765H450.524C457.94 135.765 463.951 129.754 463.951 122.338C463.951 114.922 457.94 108.911 450.524 108.911H422.08L437.02 93.9715C442.264 88.7275 442.264 80.2255 437.02 74.9826C431.776 69.7386 423.274 69.7386 418.031 74.9826L403.092 89.9225V61.4746C403.092 54.0587 397.081 48.0477 389.665 48.0477C382.249 48.0477 376.238 54.0587 376.238 61.4746V116.773L362.184 130.827V102.384C362.184 94.9684 356.173 88.9575 348.757 88.9575C341.341 88.9575 335.33 94.9684 335.33 102.384V157.683L269.429 223.584V130.387L308.532 91.2845C313.776 86.0405 313.776 77.5385 308.532 72.2956C303.287 67.0516 294.786 67.0516 289.543 72.2956L269.429 92.4085V72.5326L308.532 33.4298C313.776 28.1858 313.776 19.6839 308.532 14.4409C303.287 9.19695 294.786 9.19695 289.543 14.4409L269.429 34.5538V13.4269C269.427 6.01097 263.416 0 256 0C248.586 0 242.574 6.01097 242.574 13.4269V34.5538L222.461 14.4409C217.217 9.19695 208.716 9.19695 203.472 14.4409C198.228 19.6849 198.228 28.1868 203.472 33.4298L242.575 72.5326V92.4085L222.462 72.2956C217.218 67.0516 208.717 67.0516 203.473 72.2956C198.229 77.5395 198.229 86.0415 203.473 91.2845L242.576 130.387V223.584L176.675 157.683V102.383C176.675 94.9674 170.664 88.9565 163.248 88.9565C155.832 88.9565 149.821 94.9674 149.821 102.383V130.827L135.767 116.773V61.4736C135.767 54.0577 129.756 48.0467 122.34 48.0467C114.924 48.0467 108.913 54.0577 108.913 61.4736V89.9175L93.9714 74.9806C88.7274 69.7366 80.2255 69.7366 74.9825 74.9806C69.7385 80.2245 69.7385 88.7265 74.9825 93.9695L89.9224 108.909H61.4766C54.0606 108.909 48.0497 114.92 48.0497 122.336C48.0497 129.752 54.0606 135.763 61.4766 135.763H116.775L130.829 149.817H102.386C94.9704 149.817 88.9594 155.828 88.9594 163.244C88.9594 170.66 94.9704 176.671 102.386 176.671H157.685L223.586 242.572H130.389L91.2854 203.469C86.0415 198.225 77.5405 198.225 72.2965 203.469C67.0526 208.713 67.0526 217.215 72.2965 222.458L92.4094 242.571H72.5345L33.4318 203.469C28.1878 198.225 19.6868 198.225 14.4429 203.469C9.1989 208.713 9.1989 217.215 14.4429 222.458L34.5558 242.571H13.4289C6.01292 242.571 0.00195312 248.583 0.00195312 255.997C0.00195312 263.413 6.01292 269.424 13.4289 269.424H34.5568L14.4439 289.538C9.1999 294.782 9.1999 303.284 14.4439 308.527C17.0659 311.149 20.5018 312.46 23.9378 312.46C27.3738 312.46 30.8108 311.149 33.4318 308.527L72.5345 269.424H92.4104L72.2975 289.538C67.0536 294.782 67.0536 303.284 72.2975 308.527C74.9195 311.149 78.3555 312.46 81.7915 312.46C85.2275 312.46 88.6644 311.149 91.2854 308.527L130.388 269.424H223.585L157.684 335.325H102.385C94.9694 335.325 88.9584 341.336 88.9584 348.752C88.9584 356.168 94.9694 362.179 102.385 362.179H130.829L116.775 376.233H61.4756C54.0596 376.233 48.0487 382.244 48.0487 389.66C48.0487 397.076 54.0596 403.087 61.4756 403.087H89.9194L74.9795 418.027C69.7356 423.271 69.7356 431.771 74.9795 437.015C77.6015 439.637 81.0375 440.948 84.4735 440.948C87.9094 440.948 91.3464 439.637 93.9674 437.015L108.907 422.076V450.519C108.907 457.935 114.918 463.946 122.334 463.946C129.75 463.946 135.761 457.935 135.761 450.519V395.221L149.815 381.167V409.611C149.815 417.027 155.826 423.038 163.242 423.038C170.658 423.038 176.669 417.027 176.669 409.611V354.312L242.57 288.411V381.608L203.467 420.711C198.223 425.955 198.223 434.456 203.467 439.699C208.711 444.943 217.213 444.943 222.456 439.699L242.569 419.587V439.461L203.466 478.564C198.222 483.808 198.222 492.31 203.466 497.553C204.711 498.802 206.191 499.792 207.82 500.467C209.45 501.142 211.196 501.488 212.96 501.486C216.397 501.486 219.833 500.175 222.454 497.553L242.567 477.44V498.567C242.567 505.983 248.578 511.994 255.993 511.994C263.409 511.994 269.42 505.983 269.42 498.567V477.44L289.534 497.554C294.778 502.798 303.28 502.798 308.523 497.554C313.766 492.31 313.767 483.809 308.523 478.565L269.42 439.462V419.587L289.534 439.7C292.156 442.322 295.593 443.633 299.028 443.633C302.463 443.633 305.901 442.322 308.522 439.7C313.766 434.456 313.766 425.956 308.522 420.712L269.419 381.609V288.418L335.32 354.319V409.618C335.32 417.034 341.331 423.045 348.747 423.045C356.163 423.045 362.174 417.034 362.174 409.618V381.174L376.228 395.228V450.526C376.228 457.942 382.239 463.953 389.655 463.953C397.071 463.953 403.082 457.942 403.082 450.526V422.083L418.021 437.022C419.267 438.271 420.747 439.261 422.376 439.936C424.005 440.611 425.752 440.958 427.515 440.955C430.952 440.955 434.388 439.644 437.009 437.022C442.253 431.778 442.253 423.278 437.009 418.034L422.069 403.094H450.513C457.929 403.094 463.94 397.083 463.94 389.667C463.94 382.251 457.929 376.24 450.513 376.24H395.215L381.161 362.186H409.605C417.02 362.186 423.031 356.175 423.031 348.759C423.031 341.343 417.02 335.332 409.605 335.332H354.306L288.405 269.431H381.602L420.704 308.534C423.326 311.156 426.763 312.467 430.198 312.467C433.633 312.467 437.071 311.156 439.692 308.534C444.936 303.29 444.936 294.789 439.692 289.545L419.578 269.431H439.454L478.557 308.534C479.803 309.783 481.282 310.773 482.912 311.448C484.541 312.123 486.288 312.469 488.051 312.467C491.487 312.467 494.924 311.156 497.545 308.534C502.789 303.29 502.789 294.789 497.545 289.545L477.431 269.431H498.558C505.987 269.425 511.999 263.414 511.999 255.999Z" fill="#80C7EA"/>
</g>
<defs>
<clipPath id="clip0_1373_15">
<rect width="512" height="512" fill="white"/>
</clipPath>
</defs>
</svg>
