<svg width="512" height="512" viewBox="0 0 512 512" fill="none" xmlns="http://www.w3.org/2000/svg">
<path d="M261.309 160.476C232.527 131.694 234.312 101.137 254.261 81.189C274.21 61.241 304.766 59.455 333.548 88.237C362.33 117.019 365.134 178.776 358.491 185.419C351.848 192.062 290.092 189.259 261.309 160.476Z" fill="#64CC56"/>
<path d="M333.547 88.2383C312.796 67.4873 291.125 62.6293 273.17 69.0063C282.875 72.2143 292.861 78.4563 302.642 88.2383C331.424 117.02 334.228 178.777 327.585 185.42C326.913 186.092 325.669 186.665 323.96 187.127C341.292 189.489 355.495 188.416 358.49 185.42C365.133 178.777 362.329 117.02 333.547 88.2383Z" fill="#5BBD4F"/>
<path d="M272.474 135.984H239.508V16.483C239.508 7.38 246.887 0 255.991 0C265.094 0 272.474 7.38 272.474 16.483V135.984Z" fill="#795548"/>
<path d="M457 219.14C457 317.09 423.076 512 339.971 512C309.965 512 290.68 506.218 278.286 498.83C264.507 490.617 247.494 490.617 233.715 498.83C221.321 506.218 202.036 512 172.03 512C88.924 512 55 317.09 55 219.14C55 121.201 256 120.665 256 120.665C256 120.665 457 121.201 457 219.14Z" fill="#F44336"/>
<path d="M256 120.665C256 120.665 250.184 120.681 240.538 121.188C287.623 123.664 426.076 137.854 426.076 219.14C426.076 312.951 394.956 495.693 319.317 510.97C325.565 511.634 332.429 512 339.971 512C423.076 512 457 317.09 457 219.14C457 121.201 256 120.665 256 120.665ZM136.266 498.553C147 507.131 158.9 512 172.029 512C202.035 512 221.32 506.218 233.714 498.83C238.756 495.818 244.356 493.858 250.176 493.066C222.57 490.31 210.348 468.398 205.33 454.51C205.204 455.532 199.299 499.234 136.266 498.553Z" fill="#E53935"/>
<path d="M307.828 437.951C303.774 437.194 299.856 439.876 299.082 443.932C298.814 445.332 292.113 478.236 255.999 478.236C219.931 478.236 213.2 445.417 212.917 443.938C212.162 439.876 208.265 437.185 204.199 437.929C203.23 438.106 202.306 438.471 201.478 439.005C200.65 439.539 199.936 440.231 199.375 441.041C198.815 441.851 198.419 442.763 198.212 443.726C198.004 444.689 197.988 445.683 198.164 446.652C198.252 447.132 200.399 458.542 208.511 469.884C216.129 480.537 230.551 493.236 255.999 493.236C281.447 493.236 295.869 480.537 303.487 469.884C311.598 458.541 313.746 447.132 313.834 446.652C314.573 442.589 311.888 438.708 307.828 437.951ZM343.189 155.797C342.624 153.89 341.324 152.286 339.576 151.337C337.828 150.389 335.775 150.173 333.867 150.737C333.405 150.874 287.304 164.428 255.999 164.428C224.694 164.428 178.593 150.874 178.131 150.737C176.233 150.201 174.199 150.434 172.471 151.385C170.743 152.337 169.46 153.932 168.899 155.823C168.338 157.715 168.545 159.751 169.475 161.491C170.405 163.231 171.983 164.535 173.867 165.119C175.838 165.703 222.502 179.429 256 179.429C289.498 179.429 336.162 165.704 338.133 165.119C340.04 164.553 341.643 163.253 342.592 161.505C343.54 159.757 343.755 157.704 343.189 155.797Z" fill="#D32F2F"/>
<path d="M250.67 134.36C221.89 163.14 160.13 165.95 153.49 159.3C146.85 152.66 149.65 90.9001 178.43 62.1201C204.61 35.9401 232.27 35.0601 252.07 50.1201C254.04 51.6201 255.92 53.2701 257.72 55.0701C259.52 56.8701 261.171 58.7601 262.671 60.7301C277.741 80.5301 276.85 108.18 250.67 134.36Z" fill="#64CC56"/>
<path d="M257.72 55.0737C244.551 41.9047 226.758 36.6597 207.905 42.8907C214.855 45.3587 221.249 49.5067 226.815 55.0737C246.763 75.0217 248.549 105.579 219.767 134.361C203.963 150.165 178.219 158.135 157.115 161.011C172.297 165.112 224.801 160.232 250.672 134.361C279.454 105.579 277.668 75.0217 257.72 55.0737Z" fill="#5BBD4F"/>
<path d="M232.291 113.82C232.581 117.95 229.471 121.54 225.341 121.83C220.641 121.94 217.481 117.76 217.321 114.88L216.741 106.66L193.701 129.7C185.081 136.78 177.331 125 183.091 119.09L204.951 97.2301H196.341C186.331 96.4601 187.081 82.4801 196.341 82.2301H219.951L252.071 50.1201C254.041 51.6201 255.921 53.2701 257.721 55.0701C259.521 56.8701 261.171 58.7601 262.671 60.7301L230.781 92.6201L232.291 113.82Z" fill="#50A645"/>
</svg>
