<svg width="512" height="512" viewBox="0 0 512 512" fill="none" xmlns="http://www.w3.org/2000/svg">
<path d="M64.123 64.4688H487.093V469.285H64.123V64.4688Z" fill="#EBC1A0"/>
<path d="M192.129 64.3857H269.393V469.247H192.129V64.3857ZM348.717 64.3857H425.981V469.247H348.717V64.3857Z" fill="#EBA875"/>
<path d="M129.541 322.962V467.65H269.469V139.296C269.469 133.606 264.857 128.994 259.167 128.994H129.541V321.416" fill="#C27A43"/>
<path d="M259.166 128.994H225.17C230.86 128.994 235.472 133.606 235.472 139.296V467.649H269.468V139.296C269.468 133.607 264.856 128.994 259.166 128.994ZM118.986 23.4189H501.308C506.998 23.4189 511.61 28.0309 511.61 33.7209V59.3269C511.61 65.0169 506.998 69.6289 501.308 69.6289H127.228" fill="#B06F3D"/>
<path d="M33.0403 194.848C12.7913 209.513 -0.301715 233.453 0.00528455 260.439C0.496285 303.493 35.5953 338.689 78.6443 339.288C123.226 339.908 159.559 303.952 159.559 259.509C159.559 232.904 146.535 209.344 126.519 194.848V46.744C126.52 20.928 105.594 0 79.7803 0C53.9663 0 33.0403 20.928 33.0403 46.744V194.848Z" fill="#FFF6C7"/>
<path d="M79.7807 268.041C78.7661 268.041 77.7613 267.841 76.8239 267.453C75.8865 267.065 75.0347 266.495 74.3173 265.778C73.5998 265.061 73.0307 264.209 72.6425 263.271C72.2543 262.334 72.0546 261.329 72.0547 260.315V46.7436C72.0547 44.6945 72.8687 42.7294 74.3176 41.2805C75.7665 39.8316 77.7316 39.0176 79.7807 39.0176C81.8297 39.0176 83.7949 39.8316 85.2438 41.2805C86.6927 42.7294 87.5067 44.6945 87.5067 46.7436V260.314C87.5068 261.328 87.3071 262.333 86.9189 263.27C86.5307 264.208 85.9616 265.06 85.2441 265.777C84.5267 266.495 83.675 267.064 82.7375 267.452C81.8001 267.841 80.7954 268.041 79.7807 268.041Z" fill="#FF7373"/>
<path d="M92.005 75.742H67.558C66.5434 75.742 65.5388 75.5422 64.6014 75.1539C63.6641 74.7657 62.8124 74.1966 62.0949 73.4791C61.3775 72.7617 60.8084 71.91 60.4201 70.9726C60.0319 70.0353 59.832 69.0306 59.832 68.016C59.832 67.0014 60.0319 65.9968 60.4201 65.0594C60.8084 64.1221 61.3775 63.2704 62.0949 62.5529C62.8124 61.8355 63.6641 61.2664 64.6014 60.8781C65.5388 60.4899 66.5434 60.29 67.558 60.29H92.006C94.0551 60.2902 96.0202 61.1043 97.469 62.5533C98.9178 64.0023 99.7317 65.9675 99.7315 68.0165C99.7314 70.0656 98.9173 72.0307 97.4683 73.4795C96.0193 74.9283 94.0541 75.7422 92.005 75.742ZM92.005 127.809H67.558C65.509 127.809 63.5438 126.995 62.0949 125.546C60.646 124.097 59.832 122.132 59.832 120.083C59.832 118.034 60.646 116.069 62.0949 114.62C63.5438 113.171 65.509 112.357 67.558 112.357H92.006C94.0551 112.357 96.0202 113.171 97.469 114.62C98.9178 116.069 99.7317 118.034 99.7315 120.084C99.7314 122.133 98.9173 124.098 97.4683 125.547C96.0193 126.995 94.0541 127.809 92.005 127.809ZM92.005 179.877H67.558C65.509 179.877 63.5438 179.063 62.0949 177.614C60.646 176.165 59.832 174.2 59.832 172.151C59.832 170.102 60.646 168.137 62.0949 166.688C63.5438 165.239 65.509 164.425 67.558 164.425H92.006C94.0551 164.425 96.0202 165.239 97.469 166.688C98.9178 168.137 99.7317 170.102 99.7315 172.152C99.7314 174.201 98.9173 176.166 97.4683 177.614C96.0193 179.063 94.0541 179.877 92.005 179.877ZM79.781 241.708C69.521 241.708 61.175 250.055 61.175 260.315C61.175 270.575 69.521 278.921 79.781 278.921C90.041 278.921 98.387 270.574 98.387 260.315C98.387 250.055 90.041 241.708 79.781 241.708Z" fill="#5E6478"/>
<path d="M486.762 327.161H322.525C316.835 327.161 312.223 322.549 312.223 316.859V138.479C312.223 132.789 316.835 128.177 322.525 128.177H486.762V327.161Z" fill="#C2E6FF"/>
<path d="M452.766 128.177H486.762V327.162H452.766V128.177Z" fill="#A3D9FF"/>
<path d="M39.6055 501.698V476.092C39.6055 470.402 44.2175 465.79 49.9075 465.79H501.308C506.998 465.79 511.61 470.402 511.61 476.092V501.698C511.61 507.388 506.998 512 501.308 512H49.9075C44.2175 512 39.6055 507.388 39.6055 501.698Z" fill="#B06F3D"/>
</svg>
