<svg width="512" height="512" viewBox="0 0 512 512" fill="none" xmlns="http://www.w3.org/2000/svg">
<path d="M258.205 334.465C273.706 331.086 288.333 324.516 301.155 315.173C308.709 309.675 318.314 307.666 327.303 310.214C334.643 312.291 342.25 313.274 349.877 313.131C391.411 312.398 425.312 278.399 425.933 236.864C426.053 229.33 425.075 221.819 423.03 214.567C421.935 210.691 422.802 206.503 425.299 203.343C434.142 192.15 439.42 178.011 439.42 162.639C439.42 135.675 423.18 112.504 399.948 102.373C393.134 99.401 387.777 93.763 385.252 86.771C366.974 36.168 318.515 0 261.608 0C194.156 0 138.573 50.814 131.049 116.249C130.111 124.405 124.161 131.148 116.196 133.135C91.1411 139.384 72.5781 162.039 72.5781 189.03C72.5781 199.734 75.4981 209.755 80.5831 218.343C83.5351 223.326 84.5651 229.26 82.9861 234.832C81.6642 239.512 81.1382 244.38 81.4301 249.234C82.6981 270.888 100.235 288.453 121.886 289.755C123.514 289.853 125.147 289.861 126.776 289.779C134.614 289.382 142.313 292.268 147.502 298.156C166.597 319.825 193.737 334.235 224.251 336.712L258.205 334.465Z" fill="#AAD880"/>
<path d="M425.3 203.344C434.143 192.151 439.421 178.012 439.421 162.64C439.421 135.676 423.181 112.505 399.949 102.374C393.135 99.4018 387.778 93.7639 385.253 86.7719C371.125 47.6589 338.966 17.1698 298.812 5.33984C319.309 20.6018 335.206 41.6968 344.045 66.1678C346.57 73.1598 351.927 78.7988 358.741 81.7698C381.973 91.9008 398.213 115.072 398.213 142.036C398.213 157.408 392.935 171.547 384.092 182.74C381.595 185.9 380.728 190.089 381.823 193.964C383.868 201.216 384.846 208.727 384.726 216.261C384.105 257.797 350.204 291.795 308.67 292.528C301.042 292.67 293.436 291.687 286.096 289.611C281.259 288.24 276.245 288.189 271.467 289.29C266.166 304.135 237.745 313.241 258.205 334.465C273.705 331.086 288.332 324.516 301.155 315.173C308.709 309.675 318.314 307.666 327.303 310.214C334.643 312.291 342.249 313.274 349.877 313.131C391.411 312.398 425.312 278.399 425.933 236.864C426.053 229.33 425.075 221.819 423.03 214.567C421.935 210.692 422.803 206.504 425.3 203.344ZM183.044 316.114V316.109C176.208 315.556 169.437 314.389 162.811 312.624C180.012 326.134 201.166 334.838 224.251 336.713C226.066 327.76 242.016 321.969 230.499 310.039C215.816 315.192 199.769 317.447 183.044 316.114Z" fill="#9BD069"/>
<path d="M245.738 319.783L226.335 300.38C209.5 283.546 200.229 261.164 200.229 237.356C200.229 223.481 194.826 210.435 185.014 200.623L176.396 192.005C174.944 190.568 172.983 189.764 170.94 189.769C168.897 189.774 166.939 190.587 165.495 192.032C164.05 193.477 163.237 195.434 163.232 197.477C163.227 199.52 164.031 201.482 165.469 202.933L174.087 211.55C179.186 216.651 182.59 222.994 184.017 229.897C175.234 237.429 164.174 241.536 152.482 241.536C150.433 241.536 148.468 242.35 147.019 243.799C145.57 245.248 144.756 247.213 144.756 249.262C144.756 251.311 145.57 253.276 147.019 254.725C148.468 256.174 150.433 256.988 152.482 256.988C164.225 256.988 175.486 253.845 185.304 247.958C187.697 271.888 198.176 294.075 215.409 311.308L234.812 330.711C236.321 332.219 238.298 332.974 240.275 332.974C242.252 332.974 244.23 332.219 245.738 330.711C246.455 329.994 247.025 329.142 247.413 328.204C247.801 327.267 248.001 326.262 248.001 325.247C248.001 324.232 247.801 323.227 247.413 322.29C247.025 321.352 246.455 320.501 245.738 319.783Z" fill="#FBF6EC"/>
<path d="M306.377 213.252C328.54 173.294 327.298 125.498 305.715 86.9646C303.378 82.7926 297.036 84.4116 297.036 89.1936V121.492C297.036 128.629 296.544 135.741 295.575 142.776C294.985 147.06 290.208 149.359 286.473 147.179C278.45 142.497 271.426 136.281 265.805 128.885C260.184 121.489 256.074 113.059 253.71 104.075L248.705 85.0476C247.722 81.3116 242.222 82.0236 242.222 85.8856V91.9426C242.222 104.85 244.765 117.632 249.704 129.557C254.644 141.482 261.884 152.318 271.011 161.445L275.491 165.925C282.619 173.053 284.351 183.974 279.744 192.941C278.584 195.198 277.369 197.427 276.1 199.625C275.468 200.721 274.84 201.819 274.216 202.921C272.122 206.621 267.301 207.714 263.811 205.286L237.166 186.753C214.158 170.749 198.45 146.26 193.496 118.675L190.673 102.951C190.152 100.052 185.899 100.452 185.899 103.398C185.905 138.724 199.942 172.603 224.921 197.583L229.231 201.893C246.581 219.243 252.417 245.133 243.85 268.126C224.978 318.775 215.181 372.626 215.181 426.983V449.583C215.182 459.035 213.32 468.395 209.703 477.127C206.085 485.86 200.783 493.795 194.099 500.479L184.563 510.015C183.831 510.747 184.349 511.999 185.385 511.999H278.04C279.076 511.999 279.594 510.747 278.862 510.015L269.326 500.479C262.642 493.795 257.34 485.86 253.723 477.127C250.106 468.395 248.244 459.035 248.244 449.583V423.983C248.243 346.224 268.993 280.647 306.377 213.252Z" fill="#FBF6EC"/>
<path d="M381.95 225.056H380.949C372.441 225.056 364.348 222.365 357.64 217.385L366.909 201.331C367.417 200.452 367.746 199.482 367.879 198.476C368.011 197.47 367.944 196.448 367.682 195.468C367.419 194.488 366.966 193.569 366.348 192.764C365.73 191.959 364.96 191.284 364.081 190.777C363.203 190.269 362.233 189.94 361.227 189.807C360.221 189.675 359.199 189.742 358.219 190.004C357.239 190.267 356.32 190.72 355.515 191.338C354.71 191.956 354.035 192.726 353.527 193.605L334.798 226.043C319.584 252.394 292.361 268.991 261.977 270.44C259.95 270.564 258.054 271.482 256.698 272.994C255.342 274.506 254.637 276.492 254.733 278.52C254.83 280.549 255.722 282.458 257.215 283.834C258.708 285.21 260.684 285.944 262.713 285.875C298.374 284.175 330.325 264.696 348.18 233.769L349.875 230.834C358.938 237.123 369.683 240.509 380.948 240.509H381.949C386.216 240.509 389.675 237.05 389.675 232.783C389.675 228.516 386.217 225.056 381.95 225.056Z" fill="#F9EFDA"/>
<path d="M306.377 213.252C328.54 173.294 327.299 125.498 305.715 86.9655C303.378 82.7935 297.036 84.4125 297.036 89.1945V100.411C305.957 132.384 302.654 167.365 285.774 197.8C248.39 265.195 227.639 330.772 227.639 408.531V434.132C227.639 443.584 229.501 452.944 233.118 461.676C236.736 470.409 242.038 478.344 248.721 485.027C252.972 489.278 249.961 496.547 243.949 496.547H197.747C196.58 497.903 195.363 499.215 194.097 500.479L184.561 510.016C183.829 510.748 184.347 511.999 185.383 511.999H278.038C279.074 511.999 279.592 510.748 278.86 510.016L269.324 500.479C262.641 493.796 257.339 485.861 253.721 477.128C250.104 468.396 248.242 459.036 248.242 449.583V423.983C248.243 346.224 268.993 280.647 306.377 213.252Z" fill="#F9EFDA"/>
<path d="M248.583 464.272H214.845C212.796 464.272 210.831 463.458 209.382 462.009C207.933 460.56 207.119 458.595 207.119 456.546C207.119 454.497 207.933 452.532 209.382 451.083C210.831 449.634 212.796 448.82 214.845 448.82H248.583C250.632 448.82 252.597 449.634 254.046 451.083C255.495 452.532 256.309 454.497 256.309 456.546C256.309 458.595 255.495 460.56 254.046 462.009C252.597 463.458 250.632 464.272 248.583 464.272ZM256.392 405.057C256.392 404.042 256.193 403.038 255.804 402.1C255.416 401.163 254.847 400.311 254.13 399.594C253.412 398.876 252.56 398.307 251.623 397.919C250.685 397.531 249.681 397.331 248.666 397.331H215.721C213.672 397.331 211.707 398.145 210.258 399.594C208.809 401.043 207.995 403.008 207.995 405.057C207.995 407.106 208.809 409.071 210.258 410.52C211.707 411.969 213.672 412.783 215.721 412.783H248.666C249.681 412.783 250.685 412.583 251.623 412.195C252.56 411.807 253.412 411.238 254.13 410.52C254.847 409.803 255.416 408.951 255.804 408.014C256.193 407.076 256.392 406.072 256.392 405.057ZM262.037 353.578C262.037 352.563 261.838 351.559 261.449 350.621C261.061 349.684 260.492 348.832 259.775 348.115C259.057 347.397 258.205 346.828 257.268 346.44C256.33 346.052 255.326 345.852 254.311 345.852H221.18C219.131 345.852 217.166 346.666 215.717 348.115C214.268 349.564 213.454 351.529 213.454 353.578C213.454 355.627 214.268 357.592 215.717 359.041C217.166 360.49 219.131 361.304 221.18 361.304H254.311C255.326 361.304 256.33 361.104 257.268 360.716C258.205 360.328 259.057 359.759 259.775 359.041C260.492 358.324 261.061 357.472 261.449 356.535C261.838 355.597 262.037 354.593 262.037 353.578ZM274.853 302.091C274.853 301.076 274.654 300.072 274.265 299.134C273.877 298.197 273.308 297.345 272.591 296.628C271.873 295.91 271.021 295.341 270.084 294.953C269.147 294.565 268.142 294.365 267.127 294.365H232.698C230.649 294.365 228.684 295.179 227.235 296.628C225.786 298.077 224.972 300.042 224.972 302.091C224.972 304.14 225.786 306.105 227.235 307.554C228.684 309.003 230.649 309.817 232.698 309.817H267.127C269.176 309.817 271.141 309.003 272.59 307.554C274.039 306.105 274.853 304.14 274.853 302.091ZM295.075 250.602C295.075 249.587 294.876 248.583 294.487 247.645C294.099 246.708 293.53 245.856 292.813 245.139C292.095 244.421 291.243 243.852 290.306 243.464C289.368 243.076 288.364 242.876 287.349 242.876H247.615C245.566 242.876 243.601 243.69 242.152 245.139C240.703 246.588 239.889 248.553 239.889 250.602C239.889 252.651 240.703 254.616 242.152 256.065C243.601 257.514 245.566 258.328 247.615 258.328H287.349C289.398 258.328 291.363 257.514 292.812 256.065C294.261 254.616 295.075 252.651 295.075 250.602Z" fill="#F4E2C1"/>
<path d="M295.076 250.602C295.076 249.587 294.876 248.583 294.488 247.645C294.1 246.708 293.53 245.856 292.813 245.139C292.096 244.421 291.244 243.852 290.306 243.464C289.369 243.076 288.364 242.876 287.35 242.876H263.248C260.986 247.988 258.816 253.14 256.739 258.329H287.35C289.399 258.329 291.364 257.514 292.813 256.065C294.262 254.616 295.076 252.651 295.076 250.602ZM274.854 302.091C274.854 301.076 274.654 300.072 274.266 299.134C273.878 298.197 273.308 297.345 272.591 296.628C271.874 295.91 271.022 295.341 270.084 294.953C269.147 294.565 268.142 294.365 267.128 294.365H244.127C242.593 299.487 241.163 304.639 239.838 309.818H267.127C269.176 309.818 271.141 309.004 272.59 307.555C274.039 306.105 274.853 304.14 274.854 302.091ZM254.312 361.305C256.361 361.305 258.326 360.491 259.775 359.042C261.224 357.593 262.038 355.628 262.038 353.579C262.038 351.53 261.224 349.565 259.775 348.116C258.326 346.667 256.361 345.853 254.312 345.853H232.419C231.615 350.989 230.913 356.141 230.316 361.306H254.312V361.305ZM248.667 397.331H227.787C227.689 401.063 227.64 404.797 227.641 408.531V412.784H248.667C250.701 412.761 252.643 411.937 254.074 410.49C255.504 409.044 256.306 407.092 256.306 405.057C256.306 403.023 255.504 401.071 254.074 399.625C252.643 398.178 250.701 397.354 248.667 397.331ZM256.31 456.545C256.31 455.53 256.11 454.526 255.722 453.588C255.334 452.651 254.764 451.799 254.047 451.082C253.33 450.364 252.478 449.795 251.54 449.407C250.603 449.019 249.598 448.819 248.584 448.819H229.156C230.266 454.146 231.977 459.33 234.256 464.272H248.584C249.598 464.272 250.603 464.072 251.54 463.684C252.478 463.295 253.33 462.726 254.047 462.009C254.765 461.291 255.334 460.439 255.722 459.502C256.11 458.564 256.31 457.56 256.31 456.545Z" fill="#F4DDB1"/>
</svg>
