<svg width="512" height="512" viewBox="0 0 512 512" fill="none" xmlns="http://www.w3.org/2000/svg">
<g clip-path="url(#clip0_1334_18)">
<path d="M194.413 68.9518C191.302 100.676 160.528 123.388 125.677 119.681C90.8261 115.974 65.0961 87.2508 68.2081 55.5268C71.3191 23.8028 102.89 70.2198 130.243 73.1288C157.595 76.0388 197.525 37.2278 194.413 68.9518Z" fill="#5BBD4F"/>
<path d="M162.215 69.4111C164.953 40.0636 153.124 14.9621 135.794 13.3453C118.464 11.7285 102.196 34.2087 99.4575 63.5561C96.7196 92.9035 108.549 118.005 125.879 119.622C143.209 121.239 159.477 98.7585 162.215 69.4111Z" fill="#64CC56"/>
<path d="M133.963 35.1882C129.847 34.7892 126.171 37.7982 125.767 41.9202L118.213 118.947C118.117 119.927 118.215 120.917 118.502 121.859C118.788 122.802 119.257 123.679 119.883 124.44C120.508 125.201 121.277 125.831 122.146 126.295C123.015 126.759 123.966 127.047 124.946 127.143C125.927 127.239 126.916 127.141 127.859 126.855C128.801 126.569 129.678 126.099 130.439 125.474C131.2 124.849 131.83 124.08 132.294 123.211C132.758 122.342 133.046 121.39 133.142 120.41L140.697 43.3832C140.89 41.4037 140.29 39.4282 139.027 37.8913C137.764 36.3545 135.943 35.3822 133.963 35.1882ZM504.604 137.157C472.576 168.513 416.906 164.849 380.262 128.973C343.618 93.0972 339.874 38.5962 371.902 7.24122C403.93 -24.1138 398.499 54.8062 427.259 82.9622C456.019 111.118 536.632 105.801 504.604 137.157Z" fill="#50A645"/>
<path d="M465.869 110.03C495.881 81.4392 505.975 43.3182 488.415 24.8841C470.854 6.44987 432.288 14.6831 402.276 43.2735C372.263 71.8639 362.169 109.985 379.73 128.419C397.291 146.853 435.857 138.62 465.869 110.03Z" fill="#64CC56"/>
<path d="M487.506 23.9798C477.808 14.4858 462.271 12.6268 445.39 17.3458C449.373 18.8528 452.939 21.0448 455.937 23.9798C474.136 41.7968 464.882 79.7448 435.267 108.738C421.433 122.281 405.604 131.472 390.807 135.609C410.993 143.25 442.1 132.954 466.835 108.738C496.451 79.7438 505.705 41.7968 487.506 23.9798Z" fill="#5BBD4F"/>
<path d="M464.463 47.5372C463.057 46.1309 461.149 45.3408 459.16 45.3408C457.171 45.3408 455.264 46.1309 453.857 47.5372L370.276 131.118C369.228 132.167 368.513 133.503 368.224 134.958C367.935 136.413 368.083 137.921 368.651 139.291C369.219 140.662 370.18 141.833 371.413 142.657C372.646 143.481 374.096 143.921 375.579 143.921C376.565 143.923 377.54 143.729 378.45 143.352C379.36 142.975 380.187 142.422 380.882 141.724L464.463 58.1432C465.87 56.7367 466.66 54.8292 466.66 52.8402C466.66 50.8512 465.87 48.9437 464.463 47.5372Z" fill="#50A645"/>
<path d="M191.629 236.058C181.393 336.275 131.391 482.73 88.6104 478.36C45.8294 473.99 26.4674 320.451 36.7034 220.234C46.9394 120.017 82.8964 111.073 125.677 115.443C168.458 119.813 201.865 135.841 191.629 236.058Z" fill="#FB8C00"/>
<path d="M125.677 115.443C115.505 114.404 105.721 114.122 96.5754 115.636C138.486 120.282 170.815 137.254 160.723 236.058C151.898 322.457 113.518 443.208 75.6895 472.069C79.7235 475.705 84.0315 477.893 88.6095 478.361C131.391 482.731 181.392 336.275 191.628 236.059C201.864 135.841 168.458 119.813 125.677 115.443Z" fill="#F57C00"/>
<path d="M346.751 324.732C243.587 427.895 53.4775 546.602 9.43754 502.563C-34.6025 458.524 84.1055 268.414 187.27 165.25C290.434 62.0856 338.988 84.9336 383.028 128.974C427.068 173.014 449.914 221.568 346.751 324.732Z" fill="#FF9800"/>
<path d="M394.57 268.69C391.87 272.64 388.94 276.7 385.76 280.86C375.48 294.32 362.6 308.88 346.75 324.73C340.988 330.487 335.124 336.141 329.16 341.69C325.4 345.2 321.55 348.71 317.63 352.22C296.05 371.56 272.19 390.89 247.53 409.09C243.22 412.28 238.88 415.43 234.52 418.53C205.26 439.42 175.25 458.46 146.9 473.83C141.86 476.57 136.88 479.18 131.96 481.67C76.1301 509.9 28.75 521.87 9.44004 502.56C-9.32996 483.79 1.46004 438.48 28.02 384.68C30.44 379.77 32.99 374.79 35.66 369.76C50.78 341.3 69.75 311.02 90.68 281.39C93.83 276.94 97.02 272.5 100.25 268.08C117.95 243.88 136.78 220.38 155.69 198.95C159.28 194.89 162.87 190.91 166.45 187.01C173.42 179.41 180.38 172.14 187.27 165.25C202.56 149.96 216.65 137.44 229.7 127.34C233.89 124.1 237.98 121.11 241.96 118.36C309.27 71.8496 347.61 93.5496 383.03 128.97C418.21 164.15 439.86 202.21 394.57 268.69Z" fill="#FF9800"/>
<path d="M383.027 128.974C358.313 104.26 332.174 86.2238 295.763 93.3818C317.194 97.9378 335 111.852 352.122 128.974C396.162 173.014 419.009 221.568 315.846 324.732C234.446 406.132 98.9157 497.208 23.7207 510.38C85.2197 526.501 252.37 419.113 346.751 324.732C449.914 221.568 427.067 173.013 383.027 128.974Z" fill="#FB8C00"/>
<path d="M394.572 268.689C391.872 272.639 388.942 276.699 385.762 280.859C292.372 220.699 249.441 165.329 229.701 127.339C233.891 124.099 237.981 121.109 241.961 118.359C257.671 149.319 297.462 206.259 394.572 268.689ZM329.161 341.689C325.401 345.199 321.552 348.709 317.632 352.219C270.341 323.189 231.241 292.439 201.361 260.789C181.711 239.979 166.391 219.219 155.691 198.949C159.281 194.889 162.871 190.909 166.451 187.009C181.691 218.069 222.611 277.049 329.161 341.689ZM247.531 409.089C243.221 412.279 238.881 415.429 234.521 418.529C153.281 365.439 111.771 316.199 90.6815 281.389C93.8315 276.939 97.0215 272.499 100.251 268.079C119.631 302.229 160.761 353.329 247.531 409.089ZM146.901 473.829C141.861 476.569 136.881 479.179 131.961 481.669C88.0115 450.519 53.1215 417.959 28.0215 384.679C30.4415 379.769 32.9915 374.789 35.6615 369.759C61.1715 405.389 98.5715 440.379 146.901 473.829Z" fill="#EF6C00"/>
</g>
<defs>
<clipPath id="clip0_1334_18">
<rect width="512" height="512" fill="white"/>
</clipPath>
</defs>
</svg>
