<svg width="512" height="512" viewBox="0 0 512 512" fill="none" xmlns="http://www.w3.org/2000/svg">
<g clip-path="url(#clip0_1335_173)">
<path d="M323.695 146.06L334.705 482.735H477.063V175.514L323.695 146.06Z" fill="#CFC8AB"/>
<path d="M184.827 37.5264L34.9375 157.07V482.734H112.322L184.827 339.231L257.322 482.734H334.704V102.016L184.827 37.5264Z" fill="#F0E6D1"/>
<path d="M257.322 301.631V482.735H112.322V301.631C112.322 261.585 144.782 229.125 184.828 229.125C224.862 229.125 257.322 261.585 257.322 301.631Z" fill="#945136"/>
<path d="M508.827 169.007L332.262 31.0166C330.81 29.8814 329.02 29.2646 327.177 29.2646H184.842L184.694 29.2656C182.871 29.2944 181.108 29.9259 179.682 31.0616L3.17497 169.007C2.32043 169.674 1.6058 170.504 1.07189 171.448C0.537984 172.392 0.195263 173.431 0.0633048 174.508C-0.0686537 175.584 0.0127359 176.676 0.302825 177.721C0.592913 178.766 1.08602 179.743 1.75397 180.598C2.52618 181.587 3.51424 182.388 4.64279 182.938C5.77135 183.488 7.01058 183.772 8.26597 183.771C10.044 183.771 11.836 183.198 13.345 182.019L184.825 48.0037L356.305 182.02C357.757 183.155 359.547 183.772 361.39 183.772H503.742C505.462 183.772 507.138 183.236 508.539 182.238C509.939 181.24 510.992 179.829 511.552 178.203C512.112 176.577 512.151 174.817 511.662 173.169C511.173 171.52 510.182 170.065 508.827 169.007Z" fill="#FF6A2E"/>
</g>
<defs>
<clipPath id="clip0_1335_173">
<rect width="512" height="512" fill="white"/>
</clipPath>
</defs>
</svg>
