<svg width="512" height="512" viewBox="0 0 512 512" fill="none" xmlns="http://www.w3.org/2000/svg">
<g clip-path="url(#clip0_1335_40)">
<path d="M304.934 506.59C290.403 492.059 281.816 472.63 280.853 452.103L276.501 359.396C269.081 356.05 262.193 338.102 255.999 332.973C249.805 338.103 242.917 356.051 235.497 359.396L231.145 452.103C230.182 472.63 221.595 492.059 207.064 506.59L205.611 508.043C204.151 509.503 205.185 512 207.25 512H302.711C305.527 512 306.938 508.595 304.946 506.603L304.934 506.59Z" fill="#DAB46B"/>
<path d="M308.292 509.948L306.068 507.724C290.807 492.463 281.789 472.058 280.777 450.5L276.501 359.396C269.08 356.05 263.321 340.721 257.126 335.591C255.525 336.923 252.744 349.204 251.05 350.42L255.022 435.047C256.034 456.605 265.052 477.01 280.313 492.271C281.891 493.849 280.773 496.547 278.542 496.547H215.615C212.808 500.508 209.403 504.249 205.928 507.724C205.039 508.637 201.529 511.403 204.554 512H307.44C308.513 512 309.049 510.705 308.292 509.948Z" fill="#CBA763"/>
<path d="M386.98 300.755C372.335 300.755 358.193 298.601 344.853 294.592C342.994 294.033 342.423 291.648 343.859 290.342C352.687 282.311 359.363 271.957 362.925 260.246C363.007 259.981 363.022 259.7 362.97 259.427C362.918 259.154 362.801 258.898 362.627 258.682C362.454 258.465 362.23 258.294 361.975 258.183C361.72 258.073 361.443 258.027 361.166 258.048C358.561 258.239 355.935 258.337 353.282 258.337C340.367 258.337 327.979 256.081 316.49 251.943C312.587 252.56 269.172 225.237 255.999 214.328C242.826 225.237 199.411 252.561 195.508 251.943C184.019 256.081 171.631 258.337 158.716 258.337C156.064 258.337 153.437 258.239 150.832 258.048C150.555 258.027 150.277 258.073 150.023 258.183C149.768 258.294 149.544 258.465 149.371 258.682C149.197 258.898 149.079 259.154 149.027 259.427C148.976 259.7 148.991 259.981 149.073 260.246C152.634 271.957 159.311 282.311 168.139 290.342C169.575 291.648 169.004 294.034 167.145 294.592C153.805 298.6 139.663 300.755 125.018 300.755C121.154 300.755 117.331 300.6 113.541 300.3C112.367 300.207 111.438 301.302 111.769 302.432C122.748 339.933 157.388 367.33 198.437 367.33C219.165 367.33 238.246 360.345 253.487 348.606C254.207 348.052 255.09 347.752 255.998 347.752C256.907 347.752 257.79 348.052 258.51 348.606C273.751 360.345 292.831 367.33 313.56 367.33C354.609 367.33 389.249 339.932 400.228 302.432C400.559 301.301 399.63 300.207 398.456 300.3C394.667 300.601 390.844 300.755 386.98 300.755Z" fill="#5AA687"/>
<path d="M366.387 196.775C343.076 196.775 321.276 190.299 302.691 179.048C300.762 179.223 267.089 158.322 256.001 149.139C244.913 158.322 211.24 179.223 209.311 179.048C190.726 190.299 168.926 196.775 145.615 196.775C142.477 196.775 139.371 196.654 136.291 196.418C136.02 196.396 135.748 196.44 135.498 196.547C135.249 196.654 135.029 196.821 134.858 197.032C134.688 197.243 134.571 197.493 134.519 197.76C134.467 198.026 134.481 198.302 134.56 198.562C143.933 229.974 173.033 252.882 207.491 252.882C224.782 252.882 240.712 247.115 253.49 237.404C254.211 236.854 255.093 236.556 256.001 236.556C256.908 236.556 257.79 236.854 258.512 237.404C271.29 247.115 287.221 252.882 304.512 252.882C338.97 252.882 368.069 229.974 377.443 198.562C377.521 198.302 377.535 198.026 377.483 197.76C377.431 197.493 377.315 197.243 377.144 197.032C376.973 196.821 376.754 196.654 376.504 196.547C376.254 196.44 375.982 196.396 375.712 196.418C372.631 196.654 369.525 196.775 366.387 196.775Z" fill="#66B394"/>
<path d="M348.913 132.086C328.164 132.086 308.837 125.99 292.628 115.492C291.49 115.566 265.011 91.4464 255.999 83.9834C246.988 91.4464 220.509 115.566 219.37 115.492C203.161 125.991 183.835 132.086 163.085 132.086C160.59 132.086 158.12 131.995 155.669 131.818C155.392 131.797 155.114 131.843 154.859 131.954C154.604 132.065 154.38 132.236 154.207 132.453C154.033 132.67 153.915 132.926 153.864 133.199C153.812 133.472 153.828 133.754 153.91 134.019C161.935 160.239 186.32 179.313 215.167 179.313C229.555 179.313 242.824 174.569 253.517 166.563C254.233 166.026 255.104 165.735 255.999 165.735C256.894 165.735 257.765 166.026 258.481 166.563C269.174 174.569 282.443 179.313 296.831 179.313C325.678 179.313 350.063 160.239 358.088 134.019C358.17 133.754 358.186 133.472 358.134 133.199C358.083 132.926 357.965 132.67 357.791 132.453C357.618 132.236 357.394 132.065 357.139 131.954C356.884 131.843 356.606 131.797 356.329 131.818C353.878 131.995 351.407 132.086 348.913 132.086Z" fill="#78C2A4"/>
<path d="M331.512 77.2235C316.053 77.2235 301.567 73.0605 289.113 65.7945C287.025 64.5765 287.56 61.3925 289.927 60.9015C304.058 57.9675 315.477 47.6325 319.957 34.1335C320.331 33.0065 319.448 31.8445 318.262 31.9135C317.006 31.9875 315.742 32.0245 314.467 32.0245C291.361 32.0245 271.058 20.0135 259.472 1.89052C257.86 -0.631477 254.139 -0.631477 252.527 1.89052C240.941 20.0135 220.638 32.0245 197.532 32.0245C196.258 32.0245 194.993 31.9865 193.737 31.9135C192.551 31.8435 191.668 33.0055 192.042 34.1335C196.522 47.6325 207.94 57.9675 222.072 60.9015C224.439 61.3925 224.975 64.5765 222.886 65.7945C210.432 73.0605 195.945 77.2235 180.487 77.2235C178.605 77.2235 176.739 77.1595 174.888 77.0355C173.699 76.9555 172.811 78.1085 173.17 79.2455C179.832 100.323 199.536 115.606 222.815 115.606C233.863 115.623 244.628 112.108 253.536 105.575C254.251 105.049 255.114 104.766 256 104.766C256.887 104.766 257.75 105.049 258.464 105.575C267.373 112.108 278.138 115.623 289.185 115.606C312.464 115.606 332.167 100.323 338.83 79.2455C339.189 78.1085 338.302 76.9555 337.112 77.0355C335.248 77.1606 333.381 77.2233 331.512 77.2235Z" fill="#95D6A4"/>
<path d="M296.052 312.507C292.982 312.507 289.912 311.907 286.989 310.707L279.882 307.79C277.836 306.944 275.537 306.944 273.492 307.79L266.399 310.703C260.593 313.105 254.072 313.105 248.266 310.704L235.038 305.272C233.142 304.494 231.633 302.994 230.844 301.104C230.054 299.213 230.047 297.086 230.826 295.19C231.604 293.295 233.103 291.786 234.994 290.996C236.885 290.206 239.012 290.2 240.908 290.978L254.136 296.41C256.182 297.257 258.48 297.257 260.527 296.41L267.62 293.497C273.424 291.096 279.944 291.095 285.75 293.495L292.857 296.412C294.902 297.259 297.199 297.259 299.245 296.413L312.483 290.979C313.421 290.594 314.426 290.397 315.441 290.4C316.456 290.403 317.46 290.606 318.396 290.997C319.332 291.388 320.182 291.96 320.897 292.68C321.612 293.4 322.178 294.254 322.564 295.192C322.949 296.131 323.146 297.136 323.143 298.151C323.139 299.165 322.936 300.169 322.545 301.105C322.154 302.042 321.582 302.891 320.862 303.607C320.143 304.322 319.289 304.888 318.351 305.273L305.113 310.707C302.193 311.907 299.122 312.507 296.052 312.507ZM225.567 227.251C222.952 227.251 220.337 226.74 217.848 225.718L212.299 223.44C211.113 222.95 209.781 222.95 208.596 223.441L203.059 225.716C198.113 227.762 192.559 227.762 187.614 225.717C185.742 224.923 184.259 223.422 183.486 221.541C182.713 219.661 182.713 217.551 183.485 215.67C184.258 213.789 185.74 212.288 187.612 211.493C189.483 210.698 191.592 210.672 193.483 211.422C194.668 211.913 196.001 211.913 197.187 211.422L202.725 209.147C207.669 207.102 213.223 207.101 218.168 209.145L223.718 211.423C224.911 211.913 226.226 211.913 227.419 211.423L237.756 207.18C238.694 206.795 239.699 206.598 240.714 206.601C241.729 206.604 242.733 206.807 243.669 207.198C244.605 207.589 245.455 208.161 246.17 208.881C246.885 209.601 247.452 210.454 247.837 211.393C248.222 212.332 248.419 213.337 248.416 214.352C248.412 215.366 248.209 216.37 247.818 217.306C247.427 218.243 246.855 219.092 246.135 219.808C245.416 220.523 244.562 221.089 243.624 221.474L233.287 225.717C230.838 226.728 228.215 227.249 225.567 227.251Z" fill="#5AA687"/>
<path d="M245.301 512C254.88 497.294 261.222 480.52 263.652 463.008C263.792 462.003 263.732 460.98 263.476 459.998C263.22 459.016 262.774 458.095 262.162 457.285C261.55 456.476 260.784 455.795 259.909 455.282C259.034 454.768 258.066 454.432 257.061 454.293C252.83 453.698 248.932 456.658 248.346 460.884C245.748 479.606 238.017 497.36 226.242 512H245.301Z" fill="#CBA763"/>
<path d="M236.549 496.546C233.578 501.992 230.129 507.164 226.242 511.999H245.302C248.516 507.063 251.365 501.898 253.825 496.546H236.549ZM258.189 454.535C259.435 458.947 261.029 463.253 262.955 467.412C263.214 465.949 263.447 464.481 263.652 463.007C263.906 461.175 263.495 459.312 262.492 457.758C261.49 456.203 259.963 455.06 258.189 454.535Z" fill="#BC9B5C"/>
</g>
<defs>
<clipPath id="clip0_1335_40">
<rect width="512" height="512" fill="white"/>
</clipPath>
</defs>
</svg>
