<svg width="512" height="512" viewBox="0 0 512 512" fill="none" xmlns="http://www.w3.org/2000/svg">
<path d="M272.886 12.0554C267.983 8.47707 262.07 6.54883 255.999 6.54883C249.929 6.54883 244.016 8.47707 239.112 12.0554L43.6543 154.677C40.9171 156.675 38.6903 159.29 37.1552 162.311C35.6201 165.331 34.8201 168.672 34.8203 172.06V485.017H477.179V172.059C477.179 168.671 476.379 165.331 474.844 162.31C473.309 159.289 471.082 156.674 468.345 154.676L272.886 12.0554Z" fill="#B3D8FB"/>
<path d="M70.877 485.016V182.967C70.8769 181.877 71.1343 180.803 71.6282 179.831C72.122 178.859 72.8384 178.018 73.719 177.375L248.635 49.7405C250.773 48.1798 253.353 47.3389 256 47.3389C258.647 47.3389 261.226 48.1798 263.365 49.7405L438.281 177.374C439.162 178.017 439.878 178.858 440.372 179.83C440.866 180.802 441.123 181.876 441.123 182.966V485.015L70.877 485.016Z" fill="#D8EAFB"/>
<path d="M70.877 485.016V182.967C70.8769 181.877 71.1343 180.803 71.6282 179.831C72.122 178.859 72.8384 178.018 73.719 177.375L248.635 49.7405C250.773 48.1798 253.353 47.3389 256 47.3389C258.647 47.3389 261.226 48.1798 263.365 49.7405L438.281 177.374C439.162 178.017 439.878 178.858 440.372 179.83C440.866 180.802 441.123 181.876 441.123 182.966V485.015L70.877 485.016Z" fill="#D8EAFB"/>
<path d="M70.877 182.967C70.8769 181.877 71.1343 180.803 71.6282 179.831C72.122 178.859 72.8384 178.018 73.719 177.375L248.635 49.7405C250.773 48.1798 253.353 47.3389 256 47.3389C258.647 47.3389 261.226 48.1798 263.365 49.7405L438.281 177.374C439.162 178.017 439.878 178.858 440.372 179.83C440.866 180.802 441.123 181.876 441.123 182.966L70.877 182.967Z" fill="#E8F3FF"/>
<path d="M248.636 49.7405L232.463 61.5415L404.81 187.301V485.016H441.124V182.967C441.124 181.877 440.867 180.803 440.373 179.831C439.879 178.859 439.162 178.018 438.282 177.375L263.366 49.7405C261.227 48.1798 258.648 47.3389 256.001 47.3389C253.353 47.3389 250.774 48.1798 248.636 49.7405Z" fill="#C1E2FF"/>
<path d="M438.282 177.375L263.366 49.7405C261.227 48.1798 258.648 47.3389 256.001 47.3389C253.353 47.3389 250.774 48.1798 248.636 49.7405L232.463 61.5415L398.871 182.967H441.125C441.124 181.877 440.867 180.803 440.373 179.831C439.879 178.859 439.162 178.018 438.282 177.375Z" fill="#D8EAFB"/>
<path d="M488.824 459.1H23.176C10.376 459.1 0 469.477 0 482.276C0 495.076 10.376 505.452 23.176 505.452H488.824C501.624 505.452 512 495.076 512 482.276C512 469.477 501.624 459.1 488.824 459.1Z" fill="#7BA0B0"/>
<path d="M488.824 459.1H475.686V482.276C475.686 495.076 465.31 505.452 452.51 505.452H488.824C501.624 505.452 512 495.076 512 482.276C512 469.477 501.624 459.1 488.824 459.1Z" fill="#688B96"/>
<path d="M438.281 177.376L435.356 175.242H329.503V98.0016L314.05 86.7256V175.242H197.95V86.7256L182.497 98.0016V175.242H76.644L73.719 177.376C72.8384 178.018 72.122 178.859 71.6282 179.831C71.1343 180.803 70.8769 181.878 70.877 182.968V190.694H441.123V182.968C441.123 181.878 440.866 180.803 440.372 179.831C439.878 178.859 439.162 178.018 438.281 177.376Z" fill="#B3D8FB"/>
<path d="M127.386 239.662C126.444 233.743 130.908 228.339 136.898 228.146C157.549 227.481 203.191 229.338 234.557 255.245C246.549 265.15 251.775 276.613 253.679 286.939C259.131 316.518 237.264 343.003 207.178 343.236C196.678 343.317 184.435 340.35 172.443 330.445C141.077 304.537 130.633 260.067 127.386 239.662ZM384.504 288.615C385.649 284.017 382.5 279.457 377.795 278.897C361.575 276.968 325.498 275.324 299.03 293.596C288.911 300.582 284.014 309.255 281.812 317.258C275.505 340.185 290.926 362.534 314.607 364.765C322.871 365.543 332.717 364.04 342.836 357.054C369.305 338.782 380.558 304.466 384.504 288.615Z" fill="#9BD069"/>
<path d="M342.205 308.658C341.344 306.799 339.78 305.358 337.856 304.652C335.932 303.946 333.807 304.033 331.947 304.894C313.444 313.465 297.33 325.192 284.053 339.747C276.39 348.152 269.975 357.615 265.006 367.846C259.5 342.194 247.384 318.407 229.558 298.864C214.013 281.822 186.687 264.269 185.532 263.53C183.806 262.452 181.724 262.098 179.739 262.546C177.753 262.993 176.025 264.206 174.928 265.921C173.832 267.635 173.456 269.714 173.883 271.704C174.309 273.694 175.504 275.435 177.207 276.549C177.473 276.719 203.982 293.754 218.142 309.278C240.599 333.898 252.955 366.059 252.934 399.833L252.895 434.719C252.894 435.734 253.093 436.739 253.48 437.677C253.867 438.615 254.436 439.467 255.152 440.186C255.869 440.904 256.72 441.474 257.657 441.863C258.594 442.252 259.599 442.453 260.613 442.454H260.622L260.657 442.452L260.692 442.454H260.71C261.725 442.452 262.729 442.25 263.666 441.86C264.602 441.47 265.453 440.899 266.168 440.18C266.884 439.46 267.452 438.608 267.838 437.669C268.224 436.731 268.422 435.726 268.419 434.711L268.388 420.664C268.372 394.364 277.99 369.326 295.471 350.161C307.357 337.131 321.815 326.619 338.444 318.916C340.303 318.055 341.744 316.49 342.449 314.566C343.155 312.643 343.067 310.517 342.205 308.658Z" fill="#7DB723"/>
<path d="M339.358 447.884C339.358 444.806 338.113 441.84 335.862 439.74C328.348 432.73 319.557 428.449 310.481 426.906C298.801 411.097 281.431 401.06 262.02 401.06C242.609 401.06 225.238 411.097 213.559 426.906C204.483 428.449 195.693 432.73 188.178 439.74C185.927 441.84 184.682 444.806 184.682 447.884C184.682 454.078 189.704 459.1 195.898 459.1H328.142C334.337 459.1 339.358 454.079 339.358 447.884Z" fill="#C6865C"/>
<path d="M335.862 439.74C328.348 432.73 319.557 428.449 310.481 426.906C298.801 411.097 281.431 401.06 262.02 401.06C255.276 401.059 248.587 402.281 242.277 404.666C253.564 408.916 263.463 416.711 270.996 426.906C280.045 428.444 288.809 432.704 296.309 439.677C297.435 440.726 298.333 441.997 298.946 443.409C299.559 444.821 299.875 446.344 299.873 447.884V459.1H328.143C334.337 459.1 339.359 454.078 339.359 447.884C339.357 444.806 338.112 441.84 335.862 439.74Z" fill="#B16E3D"/>
</svg>
