<svg width="512" height="512" viewBox="0 0 512 512" fill="none" xmlns="http://www.w3.org/2000/svg">
<g clip-path="url(#clip0_1335_91)">
<path d="M64 117.698H288V288H64V117.698Z" fill="#FFE177"/>
<path d="M110.359 148.604H288V117.698H64V288H94.906V164.057C94.906 155.522 101.824 148.604 110.359 148.604Z" fill="#FFD15B"/>
<path d="M128 21.5762H192V74.3022H128V21.5762Z" fill="#FFE177"/>
<path d="M169.208 42.1792H192V21.5762H128V74.3022H158.906V52.4812C158.906 46.7922 163.518 42.1792 169.208 42.1792Z" fill="#FFD15B"/>
<path d="M201 32H119C117.143 32 115.363 31.2625 114.05 29.9497C112.738 28.637 112 26.8565 112 25V7C112 5.14348 112.738 3.36301 114.05 2.05025C115.363 0.737498 117.143 0 119 0L201 0C202.857 0 204.637 0.737498 205.95 2.05025C207.263 3.36301 208 5.14348 208 7V25C208 26.8565 207.263 28.637 205.95 29.9497C204.637 31.2625 202.857 32 201 32Z" fill="#8F5A46"/>
<path d="M112 7V25C112 26.8565 112.738 28.637 114.05 29.9497C115.363 31.2625 117.143 32 119 32H153.208V0H119C117.143 0 115.363 0.737498 114.05 2.05025C112.738 3.36301 112 5.14348 112 7Z" fill="#7D4F3D"/>
<path d="M320 128H43.6678C38.3068 128 34.8208 122.358 37.2178 117.564L62.0068 67.987C62.6055 66.7889 63.526 65.7813 64.6653 65.0771C65.8045 64.3729 67.1174 63.9999 68.4568 64H320V128Z" fill="#8F5A46"/>
<path d="M62.0068 67.986L37.2178 117.563C34.8208 122.358 38.3068 128 43.6678 128H83.5098L115.51 64H68.4568C67.1175 63.9998 65.8047 64.3726 64.6655 65.0767C63.5262 65.7807 62.6056 66.7881 62.0068 67.986Z" fill="#7D4F3D"/>
<path d="M101.906 232.625C92.5323 232.625 84.9062 224.999 84.9062 215.625V165.625C84.9062 156.251 92.5323 148.625 101.906 148.625H151.906C161.28 148.625 168.906 156.251 168.906 165.625V215.625C168.906 224.999 161.28 232.625 151.906 232.625H101.906Z" fill="#FFD15B"/>
<path d="M151.906 222.625H101.906C100.05 222.625 98.2693 221.888 96.9565 220.575C95.6438 219.262 94.9062 217.482 94.9062 215.625V165.625C94.9062 163.768 95.6438 161.988 96.9565 160.675C98.2693 159.362 100.05 158.625 101.906 158.625H151.906C153.763 158.625 155.543 159.362 156.856 160.675C158.169 161.988 158.906 163.768 158.906 165.625V215.625C158.906 217.482 158.169 219.262 156.856 220.575C155.543 221.888 153.763 222.625 151.906 222.625Z" fill="#C4E2FF"/>
<path d="M94.9062 165.625V215.625C94.9062 217.482 95.6438 219.262 96.9565 220.575C98.2693 221.888 100.05 222.625 101.906 222.625H125.812V158.625H101.906C100.05 158.625 98.2693 159.362 96.9565 160.675C95.6438 161.988 94.9063 163.768 94.9062 165.625Z" fill="#B3DAFE"/>
<path d="M464 224V501.7H428.38L416 512H384L370.01 501.7H303.45L288 512H208V224L336 48L464 224Z" fill="#FFE177"/>
<path d="M351.453 69.248L336 48L208 224V512H238.906V248.482C238.906 245.534 239.84 242.661 241.574 240.277L328.971 120.106C332.318 115.504 339.193 115.546 342.484 120.188L453.35 276.604H464V224L351.453 69.248Z" fill="#FFD15B"/>
<path d="M319.999 64H278.119L230.164 128H273.255L319.999 64Z" fill="#7D4F3D"/>
<path d="M464 256L336 75.4111L208 256H160L322.961 38.5171C324.457 36.4609 326.418 34.7876 328.684 33.634C330.95 32.4803 333.457 31.8789 336 31.8789C338.543 31.8789 341.05 32.4803 343.316 33.634C345.582 34.7876 347.543 36.4609 349.039 38.5171L503.357 244.464C506.919 249.218 503.527 256 497.586 256H464Z" fill="#8F5A46"/>
<path d="M295 298C285.626 298 278 290.374 278 281V199C278 189.626 285.626 182 295 182H377C386.374 182 394 189.626 394 199V281C394 290.374 386.374 298 377 298H295Z" fill="#FFD15B"/>
<path d="M377 288H295C293.143 288 291.363 287.262 290.05 285.95C288.738 284.637 288 282.857 288 281V199C288 197.143 288.738 195.363 290.05 194.05C291.363 192.737 293.143 192 295 192H377C378.857 192 380.637 192.737 381.95 194.05C383.262 195.363 384 197.143 384 199V281C384 282.857 383.262 284.637 381.95 285.95C380.637 287.262 378.857 288 377 288Z" fill="#C4E2FF"/>
<path d="M288 199V281C288 282.857 288.738 284.637 290.05 285.95C291.363 287.262 293.143 288 295 288H318.906V192H295C293.143 192 291.363 192.737 290.05 194.05C288.738 195.363 288 197.143 288 199Z" fill="#B3DAFE"/>
<path d="M394 359V512H384L370.01 501.7H303.45L288 512H278V359C278 349.63 285.63 342 295 342H377C386.37 342 394 349.63 394 359Z" fill="#FFD15B"/>
<path d="M384 512H288V359C288 357.143 288.738 355.363 290.05 354.05C291.363 352.738 293.143 352 295 352H377C378.857 352 380.637 352.738 381.95 354.05C383.262 355.363 384 357.143 384 359V512Z" fill="#528FD8"/>
<path d="M288 359V512H318.906V352H295C293.143 352 291.363 352.738 290.05 354.05C288.738 355.363 288 357.143 288 359Z" fill="#0573CE"/>
<path d="M319.999 455.726C317.95 455.726 315.985 454.912 314.536 453.464C313.087 452.015 312.273 450.049 312.273 448V416C312.273 414.986 312.473 413.981 312.862 413.044C313.25 412.106 313.819 411.255 314.536 410.537C315.254 409.82 316.105 409.251 317.043 408.863C317.98 408.474 318.985 408.274 319.999 408.274C321.014 408.274 322.019 408.474 322.956 408.863C323.893 409.251 324.745 409.82 325.463 410.537C326.18 411.255 326.749 412.106 327.137 413.044C327.526 413.981 327.725 414.986 327.725 416V448C327.725 450.049 326.911 452.015 325.463 453.464C324.014 454.912 322.049 455.726 319.999 455.726Z" fill="#C4E2FF"/>
<path d="M208 512H160L145.77 501.698H32V309.698H208V512Z" fill="#FFE177"/>
<path d="M78.359 340.604H208V309.698H32V512H62.906V356.057C62.906 347.522 69.824 340.604 78.359 340.604Z" fill="#FFD15B"/>
<path d="M11.6678 320H208V256H36.4568C35.1176 256 33.8049 256.373 32.6657 257.077C31.5265 257.781 30.6058 258.788 30.0068 259.986L5.21775 309.564C2.82075 314.358 6.30675 320 11.6678 320Z" fill="#8F5A46"/>
<path d="M30.0068 259.986L5.21775 309.564C2.82075 314.358 6.30675 320 11.6678 320H41.2068L73.2068 256H36.4568C35.1175 256 33.8047 256.373 32.6655 257.077C31.5262 257.781 30.6056 258.788 30.0068 259.986Z" fill="#7D4F3D"/>
<path d="M87 424.627C77.626 424.627 70 417.001 70 407.627V357.627C70 348.253 77.626 340.627 87 340.627H153C162.374 340.627 170 348.253 170 357.627V407.627C170 417.001 162.374 424.627 153 424.627H87Z" fill="#FFD15B"/>
<path d="M153 414.626H87C85.1435 414.626 83.363 413.888 82.0503 412.576C80.7375 411.263 80 409.482 80 407.626V357.626C80 355.769 80.7375 353.989 82.0503 352.676C83.363 351.363 85.1435 350.626 87 350.626H153C154.857 350.626 156.637 351.363 157.95 352.676C159.263 353.989 160 355.769 160 357.626V407.626C160 409.482 159.263 411.263 157.95 412.576C156.637 413.888 154.857 414.626 153 414.626Z" fill="#C4E2FF"/>
<path d="M80 357.627V407.627C80 409.483 80.7375 411.264 82.0503 412.577C83.363 413.889 85.1435 414.627 87 414.627H110.906V350.627H87C85.1435 350.627 83.363 351.364 82.0503 352.677C80.7375 353.99 80 355.77 80 357.627Z" fill="#B3DAFE"/>
<path d="M109.971 448C102.771 447.989 95.7791 450.417 90.1357 454.888C83.7217 441.358 69.9387 432 53.9707 432C31.8797 432 13.9707 449.909 13.9707 472C13.9707 494.091 31.8797 512 53.9707 512C65.8747 512 76.5637 506.8 83.8917 498.548C89.6927 506.69 99.2107 512 109.971 512C127.644 512 141.971 497.673 141.971 480C141.971 462.327 127.644 448 109.971 448Z" fill="#8BC727"/>
<path d="M44.8757 472C44.8757 455.386 55.0047 441.139 69.4227 435.095C64.5294 433.045 59.276 431.993 53.9707 432C31.8797 432 13.9707 449.909 13.9707 472C13.9707 494.091 31.8797 512 53.9707 512C59.276 512.007 64.5292 510.954 69.4227 508.905C55.0047 502.86 44.8757 488.613 44.8757 472Z" fill="#81B823"/>
<path d="M153 512H7C5.14348 512 3.36301 511.262 2.05025 509.95C0.737498 508.637 0 506.857 0 505L0 487C0 485.143 0.737498 483.363 2.05025 482.05C3.36301 480.738 5.14348 480 7 480H153C154.857 480 156.637 480.738 157.95 482.05C159.263 483.363 160 485.143 160 487V505C160 506.857 159.263 508.637 157.95 509.95C156.637 511.262 154.857 512 153 512Z" fill="#8F5A46"/>
<path d="M0 487V505C0 506.857 0.737498 508.637 2.05025 509.95C3.36301 511.262 5.14348 512 7 512H30.906V480H7C5.14348 480 3.36301 480.738 2.05025 482.05C0.737498 483.363 0 485.143 0 487Z" fill="#7D4F3D"/>
<path d="M487.243 357.994C492.671 352.259 496 344.519 496 336C496 318.327 481.673 304 464 304C446.327 304 432 318.327 432 336C432 344.519 435.329 352.26 440.757 357.994C425.993 366.18 416 381.923 416 400C416 426.51 437.49 448 464 448C490.51 448 512 426.51 512 400C512 381.923 502.007 366.18 487.243 357.994Z" fill="#A2E62E"/>
<path d="M446.906 400C446.906 381.923 456.899 366.18 471.663 357.994C466.03 352.058 462.895 344.183 462.906 336C462.906 323.931 469.588 313.424 479.453 307.973C474.723 305.359 469.405 303.992 464 304C446.327 304 432 318.327 432 336C432 344.519 435.329 352.26 440.757 357.994C425.993 366.18 416 381.923 416 400C416 426.51 437.49 448 464 448C469.256 448.005 474.476 447.147 479.453 445.458C460.525 439.025 446.906 421.103 446.906 400Z" fill="#97D729"/>
<path d="M436.024 364.101L456.273 379.787V496H471.726V420.212L493.008 406.494C493.861 405.945 494.597 405.232 495.175 404.398C495.752 403.564 496.16 402.624 496.374 401.632C496.588 400.641 496.605 399.616 496.424 398.618C496.242 397.62 495.866 396.667 495.316 395.814C494.766 394.961 494.054 394.225 493.22 393.648C492.386 393.07 491.446 392.662 490.454 392.448C489.462 392.234 488.438 392.217 487.44 392.398C486.442 392.58 485.489 392.957 484.636 393.506L471.726 401.828V336C471.726 333.951 470.912 331.986 469.463 330.537C468.014 329.088 466.049 328.274 464 328.274C461.951 328.274 459.986 329.088 458.537 330.537C457.088 331.986 456.274 333.951 456.274 336V360.242L445.489 351.887C444.687 351.266 443.77 350.808 442.792 350.541C441.813 350.273 440.791 350.202 439.784 350.329C438.777 350.457 437.806 350.782 436.925 351.285C436.044 351.789 435.27 352.461 434.649 353.263C434.027 354.065 433.57 354.982 433.302 355.96C433.035 356.939 432.963 357.961 433.091 358.967C433.218 359.974 433.543 360.945 434.047 361.826C434.55 362.707 435.222 363.48 436.024 364.101Z" fill="#81B823"/>
<path d="M505 512H423C421.143 512 419.363 511.262 418.05 509.95C416.738 508.637 416 506.857 416 505V487C416 485.143 416.738 483.363 418.05 482.05C419.363 480.738 421.143 480 423 480H505C506.857 480 508.637 480.738 509.95 482.05C511.262 483.363 512 485.143 512 487V505C512 506.857 511.262 508.637 509.95 509.95C508.637 511.262 506.857 512 505 512Z" fill="#8F5A46"/>
<path d="M416 487V505C416 506.857 416.738 508.637 418.05 509.95C419.363 511.262 421.143 512 423 512H446V480H423C421.143 480 419.363 480.738 418.05 482.05C416.738 483.363 416 485.143 416 487Z" fill="#7D4F3D"/>
</g>
<defs>
<clipPath id="clip0_1335_91">
<rect width="512" height="512" fill="white"/>
</clipPath>
</defs>
</svg>
