<svg width="512" height="512" viewBox="0 0 512 512" fill="none" xmlns="http://www.w3.org/2000/svg">
<g clip-path="url(#clip0_1335_132)">
<path d="M112 106.198L68.604 149.047L48 154.198V51.8955H112V106.198Z" fill="#FFE177"/>
<path d="M84.057 82.8015H112V51.8955H48V154.198L68.604 149.047V98.2545C68.604 89.7195 75.522 82.8015 84.057 82.8015Z" fill="#FFD15B"/>
<path d="M120.789 62.1973H39.211C37.2985 62.1973 35.4644 61.4375 34.1121 60.0852C32.7597 58.7329 32 56.8987 32 54.9863V37.4083C32 35.4958 32.7597 33.6616 34.1121 32.3093C35.4644 30.957 37.2985 30.1973 39.211 30.1973H120.788C122.7 30.1973 124.535 30.957 125.887 32.3093C127.239 33.6616 127.999 35.4958 127.999 37.4083V54.9853C127.999 55.9323 127.813 56.87 127.451 57.745C127.089 58.62 126.557 59.4151 125.888 60.0848C125.218 60.7545 124.423 61.2858 123.549 61.6482C122.674 62.0107 121.736 62.1973 120.789 62.1973Z" fill="#9E5528"/>
<path d="M32 37.4083V54.9853C32 56.8978 32.7597 58.7319 34.1121 60.0842C35.4644 61.4366 37.2985 62.1963 39.211 62.1963H73.207V30.1963H39.211C37.2985 30.1968 35.4645 30.9569 34.1123 32.3093C32.76 33.6617 32.0003 35.4958 32 37.4083Z" fill="#904D24"/>
<path d="M480.004 198.742V217.048H447.996V483.352H64.0041V217.048H31.9961L32.2331 209.322L32.5521 198.742L256 31.2949L480.004 198.742Z" fill="#DC8758"/>
<path d="M83.509 217.047L281.753 70.8845L255.998 51.8955L32 217.047H64V483.349H115.509V217.047H83.509Z" fill="#D77F4A"/>
<path d="M480.004 209.322V217.048H447.996V224.775H64.0041V217.048H31.9961L32.2331 209.322H480.004ZM448 288.772H64.0001C61.951 288.772 59.9859 287.958 58.537 286.509C57.0881 285.061 56.2741 283.095 56.2741 281.046C56.2741 278.997 57.0881 277.032 58.537 275.583C59.9859 274.134 61.951 273.32 64.0001 273.32H448C450.049 273.32 452.014 274.134 453.463 275.583C454.912 277.032 455.726 278.997 455.726 281.046C455.726 283.095 454.912 285.061 453.463 286.509C452.014 287.958 450.049 288.772 448 288.772ZM255.998 352.772H64.0001C61.951 352.772 59.9859 351.958 58.537 350.509C57.0881 349.061 56.2741 347.095 56.2741 345.046C56.2741 342.997 57.0881 341.032 58.537 339.583C59.9859 338.134 61.951 337.32 64.0001 337.32H255.997C257.012 337.32 258.016 337.52 258.954 337.908C259.891 338.296 260.743 338.865 261.46 339.583C262.178 340.3 262.747 341.152 263.135 342.09C263.523 343.027 263.723 344.032 263.723 345.046C263.723 346.061 263.524 347.066 263.136 348.003C262.748 348.94 262.179 349.792 261.461 350.51C260.744 351.227 259.892 351.796 258.955 352.184C258.017 352.573 257.013 352.772 255.998 352.772ZM255.998 416.77H64.0001C61.951 416.77 59.9859 415.956 58.537 414.507C57.0881 413.059 56.2741 411.093 56.2741 409.044C56.2741 406.995 57.0881 405.03 58.537 403.581C59.9859 402.132 61.951 401.318 64.0001 401.318H255.997C257.012 401.318 258.016 401.518 258.954 401.906C259.891 402.294 260.743 402.863 261.46 403.581C262.178 404.298 262.747 405.15 263.135 406.088C263.523 407.025 263.723 408.03 263.723 409.044C263.723 410.059 263.524 411.064 263.136 412.001C262.748 412.938 262.179 413.79 261.461 414.508C260.744 415.225 259.892 415.794 258.955 416.182C258.017 416.571 257.013 416.77 255.998 416.77ZM448 352.772L367.998 352.767C365.964 352.744 364.021 351.92 362.591 350.473C361.161 349.027 360.359 347.075 360.359 345.041C360.359 343.007 361.161 341.055 362.591 339.608C364.021 338.162 365.964 337.337 367.998 337.314L448 337.32C450.049 337.32 452.014 338.134 453.463 339.583C454.912 341.032 455.726 342.997 455.726 345.046C455.726 347.095 454.912 349.061 453.463 350.509C452.014 351.958 450.049 352.772 448 352.772ZM448 416.775L367.998 416.77C365.964 416.747 364.021 415.923 362.591 414.476C361.161 413.03 360.359 411.078 360.359 409.044C360.359 407.01 361.161 405.058 362.591 403.611C364.021 402.165 365.964 401.34 367.998 401.317L448 401.322C450.034 401.345 451.977 402.17 453.407 403.616C454.837 405.063 455.639 407.015 455.639 409.049C455.639 411.083 454.837 413.035 453.407 414.481C451.977 415.928 450.034 416.752 448 416.775ZM403.495 160.773H108.503C106.454 160.773 104.489 159.959 103.04 158.51C101.591 157.062 100.777 155.096 100.777 153.047C100.777 150.998 101.591 149.033 103.04 147.584C104.489 146.135 106.454 145.321 108.503 145.321H403.495C407.763 145.321 411.221 148.78 411.221 153.047C411.221 157.314 407.763 160.773 403.495 160.773ZM316.69 96.7733L195.309 96.7713C193.282 96.7387 191.348 95.9104 189.926 94.465C188.504 93.0197 187.706 91.0731 187.706 89.0453C187.706 87.0175 188.504 85.071 189.926 83.6256C191.348 82.1803 193.282 81.352 195.309 81.3193H205.611L316.69 81.3203C318.724 81.3435 320.667 82.1677 322.097 83.6142C323.527 85.0607 324.329 87.0127 324.329 89.0468C324.329 91.0809 323.527 93.033 322.097 94.4795C320.667 95.926 318.724 96.7502 316.69 96.7733Z" fill="#7D4F3D"/>
<path d="M251.673 1.44225L6.65209 185.208C3.14109 187.841 2.7771 192.973 5.8801 196.076L27.6151 217.811C28.8355 219.031 30.4529 219.774 32.1739 219.903C33.8948 220.032 35.605 219.54 36.9941 218.516L251.718 60.2013C252.958 59.2874 254.457 58.7943 255.998 58.7943C257.538 58.7943 259.037 59.2874 260.277 60.2013L475.007 218.516C476.396 219.54 478.106 220.032 479.827 219.903C481.548 219.774 483.166 219.031 484.386 217.811L506.121 196.076C509.224 192.973 508.859 187.841 505.349 185.208L260.327 1.44225C259.079 0.506067 257.56 0 256 0C254.44 0 252.921 0.506067 251.673 1.44225Z" fill="#8F5A46"/>
<path d="M64 473.046C81.6731 473.046 96 458.719 96 441.046C96 423.373 81.6731 409.046 64 409.046C46.3269 409.046 32 423.373 32 441.046C32 458.719 46.3269 473.046 64 473.046Z" fill="#8F5A46"/>
<path d="M64 409.046C81.6731 409.046 96 394.719 96 377.046C96 359.373 81.6731 345.046 64 345.046C46.3269 345.046 32 359.373 32 377.046C32 394.719 46.3269 409.046 64 409.046Z" fill="#8F5A46"/>
<path d="M64 345.046C81.6731 345.046 96 330.719 96 313.046C96 295.373 81.6731 281.046 64 281.046C46.3269 281.046 32 295.373 32 313.046C32 330.719 46.3269 345.046 64 345.046Z" fill="#8F5A46"/>
<path d="M64 281.046C81.6731 281.046 96 266.719 96 249.046C96 231.373 81.6731 217.046 64 217.046C46.3269 217.046 32 231.373 32 249.046C32 266.719 46.3269 281.046 64 281.046Z" fill="#8F5A46"/>
<path d="M448 473.046C465.673 473.046 480 458.719 480 441.046C480 423.373 465.673 409.046 448 409.046C430.327 409.046 416 423.373 416 441.046C416 458.719 430.327 473.046 448 473.046Z" fill="#8F5A46"/>
<path d="M448 409.046C465.673 409.046 480 394.719 480 377.046C480 359.373 465.673 345.046 448 345.046C430.327 345.046 416 359.373 416 377.046C416 394.719 430.327 409.046 448 409.046Z" fill="#8F5A46"/>
<path d="M448 345.046C465.673 345.046 480 330.719 480 313.046C480 295.373 465.673 281.046 448 281.046C430.327 281.046 416 295.373 416 313.046C416 330.719 430.327 345.046 448 345.046Z" fill="#8F5A46"/>
<path d="M448 281.046C465.673 281.046 480 266.719 480 249.046C480 231.373 465.673 217.046 448 217.046C430.327 217.046 416 231.373 416 249.046C416 266.719 430.327 281.046 448 281.046Z" fill="#8F5A46"/>
<path d="M200.786 345.041H151.213C149.3 345.041 147.466 344.281 146.114 342.929C144.762 341.577 144.002 339.742 144.002 337.83V288.257C144.002 287.31 144.188 286.372 144.551 285.497C144.913 284.622 145.444 283.828 146.114 283.158C146.784 282.488 147.579 281.957 148.453 281.595C149.328 281.232 150.266 281.046 151.213 281.046H200.786C201.733 281.046 202.671 281.232 203.545 281.595C204.42 281.957 205.215 282.488 205.885 283.158C206.555 283.828 207.086 284.622 207.448 285.497C207.81 286.372 207.997 287.31 207.997 288.257V337.83C207.997 338.777 207.811 339.715 207.448 340.59C207.086 341.465 206.555 342.26 205.885 342.929C205.216 343.599 204.421 344.13 203.546 344.492C202.671 344.855 201.733 345.041 200.786 345.041Z" fill="#EAF9FA"/>
<path d="M144.002 288.258V337.831C144.002 338.778 144.188 339.716 144.551 340.59C144.913 341.465 145.444 342.26 146.114 342.93C146.784 343.599 147.579 344.131 148.453 344.493C149.328 344.855 150.266 345.042 151.213 345.042H164.605V281.047H151.213C150.266 281.047 149.328 281.233 148.453 281.596C147.578 281.958 146.783 282.489 146.114 283.159C145.444 283.828 144.913 284.623 144.551 285.498C144.188 286.373 144.002 287.311 144.002 288.258Z" fill="#DDF6F9"/>
<path d="M367.998 473.046H255.998V288.258C255.998 287.311 256.185 286.373 256.547 285.498C256.909 284.623 257.44 283.829 258.11 283.159C258.78 282.489 259.575 281.958 260.45 281.596C261.324 281.233 262.262 281.047 263.209 281.047H360.786C361.733 281.047 362.671 281.233 363.546 281.596C364.42 281.958 365.215 282.489 365.885 283.159C366.555 283.829 367.086 284.623 367.448 285.498C367.811 286.373 367.997 287.311 367.997 288.258L367.998 473.046Z" fill="#FED2A4"/>
<path d="M255.998 288.258V473.047H286.904V281.047H263.21C262.263 281.047 261.325 281.233 260.45 281.595C259.575 281.957 258.78 282.489 258.11 283.158C257.44 283.828 256.909 284.623 256.547 285.498C256.184 286.373 255.998 287.311 255.998 288.258Z" fill="#FFBD86"/>
<path d="M287.999 400.773C286.985 400.773 285.98 400.574 285.043 400.185C284.105 399.797 283.253 399.228 282.536 398.511C281.819 397.793 281.25 396.941 280.861 396.004C280.473 395.067 280.273 394.062 280.273 393.047V377.047C280.273 374.998 281.087 373.033 282.536 371.584C283.985 370.135 285.95 369.321 287.999 369.321C290.049 369.321 292.014 370.135 293.463 371.584C294.911 373.033 295.725 374.998 295.725 377.047V393.047C295.726 394.062 295.526 395.067 295.138 396.004C294.749 396.941 294.18 397.793 293.463 398.511C292.745 399.228 291.894 399.797 290.956 400.185C290.019 400.574 289.014 400.773 287.999 400.773Z" fill="#8F5A46"/>
<path d="M210.998 352.542H140.998C139.009 352.542 137.101 351.752 135.695 350.345C134.288 348.939 133.498 347.031 133.498 345.042V281.046C133.498 279.057 134.288 277.149 135.695 275.743C137.101 274.336 139.009 273.546 140.998 273.546H210.998C212.987 273.546 214.895 274.336 216.301 275.743C217.708 277.149 218.498 279.057 218.498 281.046V345.042C218.498 347.031 217.708 348.939 216.301 350.345C214.895 351.752 212.987 352.542 210.998 352.542ZM148.498 337.542H203.498V288.546H148.498V337.542ZM367.997 490.848H255.302C253.313 490.848 251.405 490.058 249.999 488.651C248.592 487.245 247.802 485.337 247.802 483.348V281.046C247.802 279.057 248.592 277.149 249.999 275.743C251.405 274.336 253.313 273.546 255.302 273.546H367.997C369.986 273.546 371.894 274.336 373.3 275.743C374.707 277.149 375.497 279.057 375.497 281.046V483.348C375.497 485.337 374.707 487.245 373.3 488.651C371.894 490.058 369.986 490.848 367.997 490.848ZM262.802 475.848H360.497V288.546H262.802V475.848Z" fill="#7D4F3D"/>
<path d="M504.789 512H7.211C5.29861 512 3.46461 511.24 2.11235 509.888C0.760079 508.535 0.00026515 506.701 0 504.789L0 480.258C0 478.345 0.759728 476.511 2.11205 475.159C3.46438 473.807 5.29852 473.047 7.211 473.047H504.788C506.7 473.047 508.535 473.807 509.887 475.159C511.239 476.511 511.999 478.345 511.999 480.258V504.789C511.999 505.736 511.813 506.673 511.45 507.548C511.088 508.423 510.557 509.218 509.888 509.888C509.218 510.557 508.423 511.089 507.548 511.451C506.674 511.813 505.736 512 504.789 512Z" fill="#FFE177"/>
<path d="M50 504.789V480.258C50 478.345 50.7597 476.511 52.1121 475.159C53.4644 473.807 55.2985 473.047 57.211 473.047H7.211C5.29852 473.047 3.46438 473.807 2.11205 475.159C0.759728 476.511 0 478.345 0 480.258V504.789C0.00026515 506.701 0.760079 508.535 2.11235 509.888C3.46461 511.24 5.29861 512 7.211 512H57.211C55.2986 512 53.4646 511.24 52.1123 509.888C50.7601 508.535 50.0003 506.701 50 504.789Z" fill="#FFD15B"/>
</g>
<defs>
<clipPath id="clip0_1335_132">
<rect width="512" height="512" fill="white"/>
</clipPath>
</defs>
</svg>
