<svg width="512" height="512" viewBox="0 0 512 512" fill="none" xmlns="http://www.w3.org/2000/svg">
<g clip-path="url(#clip0_1335_78)">
<path d="M0 196.692V384.708H65.47L80.667 374.708L95.47 384.708H127.339L137.339 256L127.339 127.292L0 196.692Z" fill="#FF6C6C"/>
<path d="M254.678 186.692L127.34 127.292V384.708H159.208L175.376 374.708L189.208 384.708H254.678L264.678 274L254.678 186.692Z" fill="#C83C50"/>
<path d="M512.001 196.692V384.708H254.678V186.692L512.001 196.692Z" fill="#962A3A"/>
<path d="M254.678 196.692H512.001L384.662 127.292H127.34L254.678 196.692Z" fill="#464141"/>
<path d="M95.47 384.708H127.339L137.339 306.75L127.339 250.358L83.25 238.5L95.47 384.708Z" fill="#736E6E"/>
<path d="M159.209 384.708H127.34V250.358L171.428 238.5L159.209 384.708Z" fill="#464141"/>
<path d="M127.339 220.358H47.8008V250.358H65.4698V384.708H95.4698V250.358H127.339L137.339 234.75L127.339 220.358Z" fill="#FFF5F5"/>
<path d="M206.878 220.358H127.34V250.358H159.208V384.708H189.208V250.358H206.878V220.358Z" fill="#EBE1DC"/>
<path d="M304.604 268.972H334.604V298.972H304.604V268.972ZM368.339 268.972H398.339V298.972H368.339V268.972ZM432.073 268.972H462.073V298.972H432.073V268.972Z" fill="#464141"/>
</g>
<defs>
<clipPath id="clip0_1335_78">
<rect width="512" height="512" fill="white"/>
</clipPath>
</defs>
</svg>
