<svg width="512" height="512" viewBox="0 0 512 512" fill="none" xmlns="http://www.w3.org/2000/svg">
<path d="M300.674 207.894C299.086 207.894 297.508 207.938 295.942 208.024C290.674 165.93 254.758 133.362 211.236 133.362C167.714 133.362 131.8 165.93 126.53 208.024C124.954 207.938 123.376 207.894 121.798 207.894C74.6478 207.894 36.4258 246.116 36.4258 293.266C36.4258 340.416 74.6478 378.638 121.798 378.638H300.672C347.822 378.638 386.044 340.416 386.044 293.266C386.046 246.116 347.822 207.894 300.674 207.894Z" fill="#5A7A39"/>
<path d="M78.6195 356.56C77.7795 356.56 76.9595 356.3 76.2795 355.8C76.2595 355.8 76.2595 355.78 76.2595 355.78C75.3995 355.16 74.8395 354.22 74.6795 353.18C74.5195 352.12 74.7795 351.08 75.3995 350.2C76.6595 348.5 79.2595 348.08 80.9795 349.32C80.9795 349.32 80.9995 349.32 80.9995 349.34C82.7795 350.64 83.1595 353.14 81.8595 354.92C81.1195 355.96 79.8995 356.56 78.6195 356.56ZM66.8195 345.82C65.6795 345.82 64.5995 345.32 63.8395 344.46C51.3227 330.344 44.4199 312.127 44.4395 293.26C44.4395 250.62 79.1395 215.9 121.799 215.9C123.179 215.9 124.619 215.94 126.099 216L133.539 216.42L134.46 209.02C139.3 170.46 172.299 141.36 211.242 141.36C220.162 141.36 228.941 142.88 237.299 145.88C245.413 148.792 252.983 153.037 259.7 158.44C273.322 169.4 282.919 184.74 286.719 201.7C286.741 201.74 286.761 201.82 286.761 201.88C287.301 204.24 287.702 206.64 288.002 209.02C288.14 210.08 287.841 211.12 287.201 211.98C286.541 212.82 285.601 213.36 284.541 213.48C282.381 213.76 280.341 212.18 280.063 210.02C279.801 207.88 279.424 205.72 278.962 203.64V203.6C278.942 203.56 278.941 203.5 278.921 203.44C271.901 172.1 243.441 149.36 211.261 149.36H211.219C176.321 149.36 146.719 175.44 142.401 210.02L141.021 221.12C140.761 223.18 138.882 224.72 136.822 224.62L125.66 224C124.36 223.92 123.059 223.9 121.797 223.9C103.297 223.9 85.8995 231.12 72.7775 244.24C59.6575 257.36 52.4175 274.76 52.4175 293.26C52.4175 310.18 58.5975 326.48 69.8175 339.16C70.5218 339.957 70.8816 341 70.8178 342.061C70.7541 343.122 70.2721 344.114 69.4775 344.82C68.7395 345.46 67.7975 345.82 66.8195 345.82Z" fill="#648940"/>
<path d="M403.813 235.121C402.479 235.121 401.153 235.159 399.835 235.231C395.407 199.849 365.219 172.475 328.637 172.475C292.055 172.475 261.867 199.849 257.439 235.231C256.114 235.158 254.788 235.121 253.461 235.121C213.829 235.121 181.703 267.249 181.703 306.879C181.703 346.509 213.831 378.637 253.461 378.637H403.813C443.445 378.637 475.571 346.509 475.571 306.879C475.571 267.249 443.445 235.121 403.813 235.121Z" fill="#648940"/>
<path d="M443.563 247.128C451.414 258.896 455.593 272.731 455.571 286.878C455.571 326.51 423.443 358.636 383.813 358.636H233.461C219.314 358.658 205.479 354.479 193.711 346.628C206.573 365.924 228.533 378.636 253.461 378.636H403.813C443.445 378.636 475.571 346.508 475.571 306.878C475.571 281.95 462.859 259.99 443.563 247.128Z" fill="#5A7A39"/>
<path d="M255.907 283.267C255.021 283.267 254.139 283.291 253.265 283.339C250.321 259.827 230.261 241.637 205.951 241.637C181.641 241.637 161.581 259.827 158.637 283.339C157.757 283.291 156.876 283.267 155.995 283.267C129.659 283.267 108.309 304.617 108.309 330.953C108.309 357.289 129.659 378.639 155.995 378.639H255.907C282.243 378.639 303.593 357.289 303.593 330.953C303.593 304.617 282.243 283.267 255.907 283.267Z" fill="#76A34F"/>
<path d="M278.115 288.744C281.724 295.59 283.603 303.214 283.591 310.952C283.591 337.288 262.241 358.638 235.905 358.638H135.993C127.973 358.638 120.417 356.658 113.785 353.162C121.773 368.312 137.677 378.638 155.993 378.638H255.905C282.241 378.638 303.591 357.288 303.591 330.952C303.591 312.636 293.263 296.73 278.115 288.744Z" fill="#648940"/>
<path d="M284.254 292.604C290.334 300.804 293.609 310.745 293.592 320.952C293.592 347.288 272.242 368.638 245.906 368.638H145.994C135.787 368.654 125.846 365.38 117.646 359.3C126.334 371.032 140.274 378.638 155.994 378.638H255.906C282.242 378.638 303.592 357.288 303.592 330.952C303.592 315.234 295.986 301.292 284.254 292.604Z" fill="#5A7A39"/>
</svg>
