<svg width="512" height="512" viewBox="0 0 512 512" fill="none" xmlns="http://www.w3.org/2000/svg">
<path d="M512 256C512 386.89 397.38 493 256 493C114.62 493 0 386.89 0 256C0 143.74 84.31 49.71 197.51 25.22C216.29 21.15 235.88 19 256 19C260.51 19 265 19.11 269.45 19.32C404.58 25.8 512 129.29 512 256Z" fill="#B1E75A"/>
<path d="M256 19C250.81 19 245.661 19.16 240.547 19.442C374.735 26.841 481.095 129.913 481.095 256C481.095 382.086 374.735 485.159 240.548 492.558C245.661 492.84 250.81 493 256 493C397.385 493 512 386.891 512 256C512 125.109 397.385 19 256 19Z" fill="#9ED643"/>
<path d="M363.38 427.24C363.38 438.2 358.9 448.96 350.63 458.5C345.96 463.9 340.07 468.91 333.1 473.33C314.39 485.25 287.87 493 256 493C114.62 493 0 386.89 0 256C0 125.11 111.07 62.2803 164.68 62.2803C250.55 62.2803 297.65 111.01 297.65 232.57C297.65 385.07 363.38 383.69 363.38 427.24Z" fill="#9ED643"/>
<path d="M297.655 232.57C297.655 111.006 250.55 62.2754 164.68 62.2754C161.031 62.2754 157.107 62.5774 152.979 63.1614C226.641 70.2424 266.75 120.398 266.75 232.57C266.75 385.073 332.48 383.686 332.48 427.24C332.48 458.511 295.929 488.226 239.17 492.477C244.735 492.812 250.344 493 256.001 493C320.723 493 363.385 461.026 363.385 427.24C363.385 383.686 297.655 385.073 297.655 232.57Z" fill="#97CF3C"/>
<path d="M350.63 458.5C345.96 463.9 340.07 468.91 333.1 473.33C297.31 471.15 251.25 458.36 215.11 435.33C190.31 449.73 155.24 446.05 137.41 435.79C133.8 433.77 132.51 429.2 134.54 425.58C136.56 421.97 141.12 420.69 144.73 422.7C146 423.39 171.11 436.84 200.41 425.58C181.7 412.23 162.82 395.06 145.27 372.96C144.02 371.39 142.79 369.79 141.58 368.18C115.32 371.99 84.7897 361.79 70.3797 351.11C53.5397 339.89 44.8397 327.4 44.4697 326.87C42.1197 323.46 42.9897 318.79 46.3997 316.44C47.6997 315.55 49.1797 315.12 50.6397 315.12C53.0197 315.12 55.3597 316.25 56.8197 318.35C56.8897 318.46 64.5697 329.35 79.1897 338.96C95.1397 349.44 112.78 354.43 131.78 353.85C116.28 329.21 105.69 299.44 101.37 269.68C49.8597 251.61 36.1197 190.76 35.5497 188.1C35.3406 187.138 35.3233 186.144 35.4988 185.176C35.6742 184.207 36.0389 183.282 36.5721 182.455C37.1052 181.627 37.7963 180.913 38.6058 180.353C39.4153 179.792 40.3273 179.397 41.2897 179.19C45.3397 178.3 49.3297 180.88 50.2097 184.93C50.3897 185.72 61.5597 234.32 99.3997 252.63C93.3397 207.4 110.73 127.93 123.34 102.62C125 98.83 129.43 97.09 133.22 98.75C137.01 100.41 138.75 104.83 137.09 108.62C136.93 109 120.72 146.63 115.26 196.89C114.23 206.37 113.63 215.63 113.46 224.68C125.05 198.7 146.09 165.59 182.4 146.3C186.06 144.36 190.6 145.75 192.55 149.4C194.49 153.06 193.1 157.6 189.44 159.55C134.37 188.8 117.55 256.34 115.68 264.6C119.56 293.04 128.37 318.89 142.07 341.97C144.63 333.78 148.46 323.26 153.95 311.87C170.12 278.3 193.17 253.31 220.61 239.61C224.32 237.76 228.82 239.26 230.67 242.97C232.52 246.68 231.02 251.18 227.31 253.03C174.64 279.33 156.59 343.69 153.07 358.5C169.15 380.03 189.02 398.86 207.23 412C207.8 390.97 213.73 353.66 246 330.59C249.37 328.18 254.06 328.96 256.47 332.33C258.88 335.7 258.1 340.38 254.73 342.79C221.88 366.27 221.71 409.64 222.42 422.21C245.11 436.28 266.89 444.69 284.64 449.71C319.65 459.61 346.46 458.71 350.63 458.5ZM475.43 294.01C466.32 291.81 456.75 287.75 449.39 284.2C450.47 295.58 451.24 307.3 451.7 319.34C451.86 323.48 448.64 326.97 444.5 327.13C440.38 327.29 436.81 323.7 436.71 319.92C436.21 306.78 435.33 294.04 434.08 281.72C417.76 291.2 406.08 313.39 402.57 322.37C401.25 326.32 395.75 328.02 392.85 326.62C391.932 326.261 391.094 325.725 390.384 325.042C389.674 324.359 389.105 323.543 388.711 322.641C388.316 321.738 388.103 320.766 388.084 319.781C388.065 318.796 388.24 317.817 388.6 316.9C389.26 315.2 404.19 277.79 432.24 265.89C427.84 232.43 420.54 202.25 410.37 175.41C370.36 186.88 354.21 233.06 354.05 233.55C352.86 237.54 347.61 239.51 344.54 238.24C342.657 237.606 341.103 236.25 340.22 234.47C339.337 232.691 339.196 230.633 339.83 228.75C340.6 226.46 358.23 175.63 404.68 161.44C391.86 132.03 375.26 107.05 354.95 86.63C330.99 100.49 321.38 124.79 321.28 125.05C319.97 129 314.51 130.74 311.59 129.36C307.73 127.88 305.79 123.56 307.26 119.7C307.72 118.49 317.76 92.74 343.58 76C308.9 45.93 270.95 33.74 245.18 28.81C220.55 24.1 202.01 24.92 197.51 25.22C216.29 21.15 235.88 19 256 19C260.51 19 265 19.11 269.45 19.32C300.45 28.41 333.11 44.75 360.54 71.12C392.01 85.05 406.6 86.06 406.74 86.07C416.13 86.77 416.32 100.91 406.03 101.05C405.57 101.03 398.22 100.64 383.17 95.88C398.13 114.79 410.68 136.53 420.81 161.02C429.2 164.65 454.38 175.41 475.2 182.98C479.09 184.39 481.1 188.69 479.69 192.59C478.27 196.48 473.97 198.49 470.08 197.08C455.9 191.93 439.79 185.34 428.13 180.44C437 206.35 443.43 234.99 447.41 266.31C453.43 269.6 466.98 276.54 478.95 279.43C488.16 281.96 485.3 295.96 475.43 294.01Z" fill="#C8F57F"/>
</svg>
