<svg width="512" height="512" viewBox="0 0 512 512" fill="none" xmlns="http://www.w3.org/2000/svg">
<path fill-rule="evenodd" clip-rule="evenodd" d="M256 145.666L466.01 129.198L258.434 13.5035C256.877 12.6355 255.123 12.6355 253.566 13.5035L45.9902 129.198L256 145.666Z" fill="#F76C82"/>
<path fill-rule="evenodd" clip-rule="evenodd" d="M466.01 129.197V492.146H433.074V195.069H78.9262V492.146H45.9902V129.197H466.01Z" fill="#CAD0D7"/>
<path fill-rule="evenodd" clip-rule="evenodd" d="M21 129.197H491C493.754 129.197 496 131.443 496 134.197V157.133C496 159.887 493.754 162.133 491 162.133H21C19.6747 162.131 18.4045 161.603 17.4674 160.666C16.5303 159.729 16.0026 158.459 16 157.133V134.197C16 131.443 18.246 129.197 21 129.197ZM108.916 485.145C110.773 485.145 112.553 485.883 113.866 487.196C115.179 488.508 115.916 490.289 115.916 492.145C115.916 494.002 115.179 495.782 113.866 497.095C112.553 498.408 110.773 499.145 108.916 499.145H16C14.1435 499.145 12.363 498.408 11.0503 497.095C9.7375 495.782 9 494.002 9 492.145C9 490.289 9.7375 488.508 11.0503 487.196C12.363 485.883 14.1435 485.145 16 485.145H108.916ZM496 485.146C497.857 485.146 499.637 485.884 500.95 487.197C502.262 488.509 503 490.29 503 492.146C503 494.003 502.262 495.783 500.95 497.096C499.637 498.409 497.857 499.146 496 499.146H403.084C401.227 499.146 399.447 498.409 398.134 497.096C396.821 495.783 396.084 494.003 396.084 492.146C396.084 490.29 396.821 488.509 398.134 487.197C399.447 485.884 401.227 485.146 403.084 485.146H496Z" fill="#A9B0BB"/>
<path fill-rule="evenodd" clip-rule="evenodd" d="M361.64 346.987H353.418C348.163 346.987 343.863 351.287 343.863 356.542V360.448C343.863 365.703 348.163 370.003 353.418 370.003H361.64C366.895 370.003 371.195 365.703 371.195 360.448V356.542C371.195 351.287 366.896 346.987 361.64 346.987ZM150.36 346.987H158.582C163.837 346.987 168.137 351.287 168.137 356.542V360.448C168.137 365.703 163.838 370.003 158.582 370.003H150.36C145.105 370.003 140.805 365.703 140.805 360.448V356.542C140.805 351.287 145.105 346.987 150.36 346.987ZM206.459 289.506L256 289.507H305.541C311.954 289.507 317.411 293.365 319.55 299.41L340.178 357.701C341.839 362.395 341.178 367.172 338.304 371.237C335.43 375.303 331.148 377.519 326.169 377.519H185.831C180.852 377.519 176.57 375.302 173.696 371.237C170.823 367.172 170.161 362.395 171.822 357.701L192.45 299.41C194.589 293.364 200.046 289.506 206.459 289.506Z" fill="#EB5463"/>
<path fill-rule="evenodd" clip-rule="evenodd" d="M206.457 298.549C203.876 298.549 201.834 299.992 200.973 302.426L180.345 360.717C179.666 362.636 179.903 364.353 181.079 366.016C182.257 367.683 183.788 368.476 185.83 368.476H326.169C328.21 368.476 329.741 367.683 330.919 366.016C332.094 364.353 332.332 362.637 331.653 360.717L311.025 302.426C310.164 299.992 308.123 298.549 305.541 298.549H206.457Z" fill="#A4D4FF"/>
<path fill-rule="evenodd" clip-rule="evenodd" d="M172.014 404.092H191.456C195.424 404.092 198.661 407.329 198.661 411.297V484.568C198.661 488.536 195.424 491.773 191.456 491.773H172.014C168.046 491.773 164.809 488.536 164.809 484.568V411.297C164.81 407.329 168.046 404.092 172.014 404.092ZM320.546 404.467H339.988C343.957 404.467 347.193 407.704 347.193 411.672V484.943C347.193 488.912 343.957 492.148 339.988 492.148H320.546C316.578 492.148 313.341 488.911 313.341 484.943V411.672C313.341 407.704 316.578 404.467 320.546 404.467Z" fill="#636C77"/>
<path fill-rule="evenodd" clip-rule="evenodd" d="M166.428 364.008H345.575C355.68 364.008 363.947 372.275 363.947 382.38V434.722C363.947 444.827 355.679 453.094 345.575 453.094H166.428C156.323 453.094 148.055 444.826 148.055 434.722V382.38C148.055 372.276 156.323 364.008 166.428 364.008Z" fill="#F76C82"/>
<path fill-rule="evenodd" clip-rule="evenodd" d="M297.198 442.491H214.803V394.886C214.803 388.328 220.169 382.962 226.727 382.962H285.274C291.832 382.962 297.198 388.328 297.198 394.886V442.491Z" fill="#636C77"/>
<path fill-rule="evenodd" clip-rule="evenodd" d="M181.735 377.518C191.527 377.518 199.465 385.456 199.465 395.248C199.465 405.04 191.527 412.979 181.735 412.979C171.943 412.979 164.004 405.041 164.004 395.248C164.005 385.457 171.943 377.518 181.735 377.518ZM330.267 377.518C340.059 377.518 347.997 385.456 347.997 395.248C347.997 405.04 340.059 412.979 330.267 412.979C320.475 412.979 312.536 405.041 312.536 395.248C312.536 385.457 320.475 377.518 330.267 377.518Z" fill="#F4F6F8"/>
<path fill-rule="evenodd" clip-rule="evenodd" d="M148.01 436.03H363.99C367.958 436.03 371.195 439.267 371.195 443.235V448.204C371.195 452.173 367.958 455.409 363.99 455.409H148.01C144.042 455.409 140.805 452.172 140.805 448.204V443.235C140.805 439.267 144.042 436.03 148.01 436.03Z" fill="#EB5463"/>
</svg>
