<svg width="512" height="512" viewBox="0 0 512 512" fill="none" xmlns="http://www.w3.org/2000/svg">
<g clip-path="url(#clip0_1335_2)">
<path d="M311.65 501.597C298.747 488.695 291.499 471.196 291.499 452.949V391.096C291.499 372.488 298.891 354.641 312.049 341.483L384.501 269.032C372.181 267.783 366.778 264.032 355.038 261.644L291.499 325.183V266.508C282.734 269.475 258.727 250.971 258.727 250.971C258.727 250.971 226.167 230.85 221.64 230.246C219.004 236.933 218.719 272.12 212.477 277.804C211.768 278.45 221.179 289.854 220.501 290.62V368.207L184.927 306.592C181.165 305.673 171.274 280.204 167.537 280.204C161.439 280.204 161.171 307.102 155.26 308.203L211.101 404.922C217.259 415.588 220.501 427.688 220.501 440.004V452.949C220.501 461.984 218.721 470.93 215.264 479.277C211.806 487.624 206.739 495.209 200.35 501.597L191.712 510.236C191.061 510.887 191.522 512.001 192.443 512.001H319.557C320.478 512.001 320.939 510.888 320.288 510.236L311.65 501.597Z" fill="#C17D4F"/>
<path d="M311.649 501.596C305.26 495.208 300.193 487.623 296.736 479.276C293.278 470.929 291.499 461.983 291.499 452.948V391.095C291.499 372.487 298.891 354.641 312.049 341.482L384.501 269.031C377.113 256 366.778 264.031 355.038 261.643L291.499 325.182V266.507C282.734 269.474 282.688 242.323 259.018 260.496C257.426 261.718 252.094 272.232 250.292 272.162V432.344C250.292 450.591 257.54 468.09 270.442 480.992C274.281 484.831 271.562 491.396 266.133 491.396H208.756C206.288 495.058 203.474 498.474 200.351 501.596L191.713 510.235C191.062 510.886 191.523 512 192.444 512H319.558C320.479 512 320.94 510.887 320.289 510.235L311.649 501.596Z" fill="#B16E3D"/>
<path d="M196.988 226.973C159.754 226.973 148.442 233.3 121.07 233.3C116.751 233.3 110.171 268.634 106.449 267.338C106.643 276.217 117.22 281.745 124.628 288.491C130.822 294.132 135.461 305.093 145.119 308.122C153.401 310.719 163.807 304.813 173.604 304.813C183.402 304.813 193.808 310.719 202.09 308.121C211.746 305.093 216.384 294.132 222.578 288.492C228.819 282.808 237.311 277.989 239.947 271.302C217.704 268.336 227.924 226.973 196.988 226.973Z" fill="#8BC852"/>
<path d="M255.996 272.27C293.23 272.27 293.23 259.568 330.464 259.568C367.698 259.568 366.121 269.452 393.493 269.452C409.952 269.452 422.018 257.577 430.139 252.641C438.806 247.372 447.862 245.597 452.345 235.734C457.365 224.69 454.147 218.047 453.533 207.923C452.957 198.438 455.773 184.835 449.656 176.023C439.878 161.938 435.072 169.181 425.295 155.096C415.517 141.01 425.951 133.767 416.173 119.681C406.393 105.593 390.615 107.492 380.835 93.404C371.055 79.316 373.305 62.529 361.426 50.969C348.443 38.334 337.832 38.03 318.491 27.937C298.108 17.3 278.523 0 256 0C233.477 0 213.892 17.3 193.51 27.936C174.17 38.029 163.558 38.333 150.575 50.968C138.696 62.528 140.946 79.315 131.166 93.403C121.386 107.491 105.608 105.592 95.828 119.68C86.05 133.766 96.484 141.009 86.706 155.095C76.928 169.18 72.122 161.937 62.345 176.022C56.228 184.834 59.043 198.436 58.468 207.922C57.853 218.046 54.636 224.689 59.656 235.733C64.139 245.596 73.195 247.371 81.862 252.64C89.983 257.576 102.049 269.451 118.508 269.451C145.88 269.451 144.303 259.567 181.537 259.567C218.771 259.567 218.771 272.269 256.005 272.269L255.996 272.27Z" fill="#AAD880"/>
<path d="M453.531 207.922C452.955 198.437 455.771 184.834 449.654 176.022C439.876 161.937 435.071 169.18 425.293 155.095C415.515 141.009 425.949 133.766 416.171 119.68C406.391 105.592 390.613 107.491 380.833 93.4029C371.053 79.3149 373.303 62.5289 361.424 50.9679C348.441 38.3329 337.83 38.0279 318.489 27.9359C317.648 27.4969 316.809 27.0469 315.971 26.5879C317.443 27.7809 318.86 29.0413 320.216 30.3649C332.095 41.9249 329.845 58.7119 339.625 72.7999C349.405 86.8879 365.183 84.9889 374.963 99.0769C384.741 113.163 374.307 120.406 384.085 134.492C393.863 148.577 398.669 141.334 408.446 155.419C414.563 164.231 411.748 177.833 412.323 187.319C412.938 197.443 416.155 204.087 411.135 215.13C406.652 224.993 397.596 226.769 388.929 232.037C380.808 236.973 368.742 248.849 352.283 248.849C324.911 248.849 326.488 238.965 289.254 238.965C252.021 238.965 252.02 251.666 214.79 251.667H214.794H214.785H214.789C177.559 251.666 177.558 238.965 140.325 238.965C103.091 238.965 104.668 248.849 77.2961 248.849C76.3616 248.849 75.4275 248.81 74.4961 248.734C76.9061 249.932 79.3971 251.146 81.8571 252.641C89.9781 257.577 102.044 269.452 118.503 269.452C145.875 269.452 144.298 259.568 181.532 259.568C218.765 259.568 218.766 272.269 255.996 272.27C293.226 272.269 293.227 259.568 330.46 259.568C367.694 259.568 366.117 269.452 393.489 269.452C409.948 269.452 422.014 257.577 430.135 252.641C438.802 247.373 447.858 245.597 452.341 235.734C457.364 224.689 454.146 218.046 453.531 207.922Z" fill="#9BD069"/>
<path d="M148.597 154.358C146.781 154.36 145.024 153.719 143.635 152.55C142.065 151.233 141.083 149.346 140.904 147.305C140.726 145.264 141.365 143.236 142.682 141.666C145.311 138.533 145.709 136.755 146.37 133.808C147.208 130.068 148.251 125.413 153.299 119.398C158.346 113.383 162.749 111.547 166.287 110.072C169.074 108.91 170.756 108.209 173.385 105.076C176.013 101.944 176.411 100.167 177.071 97.221C177.909 93.481 178.952 88.826 183.999 82.812C189.046 76.798 193.449 74.963 196.986 73.488C199.772 72.326 201.454 71.625 204.082 68.493C205.406 66.9462 207.287 65.9847 209.316 65.8172C211.346 65.6498 213.359 66.29 214.919 67.5987C216.478 68.9075 217.458 70.779 217.646 72.8064C217.833 74.8338 217.213 76.8533 215.92 78.426C210.873 84.44 206.47 86.275 202.932 87.75C200.146 88.912 198.464 89.613 195.836 92.744C193.208 95.876 192.81 97.653 192.15 100.6C191.312 104.339 190.269 108.995 185.222 115.009C180.175 121.023 175.772 122.859 172.234 124.334C169.447 125.496 167.765 126.197 165.136 129.33C162.507 132.463 162.109 134.241 161.448 137.187C160.61 140.927 159.567 145.583 154.52 151.597C153.795 152.463 152.889 153.159 151.866 153.636C150.842 154.114 149.726 154.36 148.597 154.358ZM414.064 206.122C414.841 205.47 415.482 204.671 415.951 203.771C416.419 202.871 416.706 201.887 416.794 200.877C416.883 199.866 416.771 198.848 416.466 197.88C416.161 196.912 415.668 196.014 415.016 195.237C412.388 192.105 411.989 190.327 411.329 187.381C410.491 183.64 409.448 178.985 404.4 172.97C399.353 166.956 394.95 165.12 391.412 163.645C388.625 162.483 386.943 161.782 384.315 158.65C381.687 155.517 381.288 153.74 380.628 150.793C379.79 147.054 378.747 142.398 373.7 136.384C368.653 130.37 364.25 128.535 360.712 127.06C357.926 125.899 356.244 125.198 353.617 122.066C352.293 120.519 350.412 119.558 348.383 119.39C346.353 119.223 344.34 119.863 342.78 121.172C341.221 122.48 340.24 124.352 340.053 126.379C339.865 128.407 340.486 130.426 341.779 131.999C346.826 138.013 351.229 139.848 354.767 141.323C357.553 142.484 359.235 143.185 361.863 146.317C364.491 149.449 364.889 151.226 365.549 154.172C366.387 157.912 367.43 162.567 372.477 168.582C377.524 174.596 381.927 176.432 385.465 177.907C388.252 179.069 389.934 179.77 392.563 182.903C395.191 186.035 395.59 187.813 396.25 190.759C397.088 194.5 398.131 199.155 403.179 205.17C403.904 206.036 404.81 206.732 405.834 207.208C406.857 207.685 407.973 207.932 409.102 207.93C410.917 207.931 412.675 207.291 414.064 206.122Z" fill="#9BD069"/>
<path d="M414.064 206.122C414.841 205.47 415.483 204.671 415.951 203.771C416.42 202.871 416.706 201.888 416.795 200.877C416.883 199.866 416.772 198.848 416.466 197.88C416.161 196.913 415.668 196.015 415.016 195.237C413.97 193.991 413.278 192.959 412.781 191.983C413.423 197.024 414.321 201.403 413.694 206.414C413.82 206.32 413.943 206.223 414.064 206.122Z" fill="#8BC852"/>
</g>
<defs>
<clipPath id="clip0_1335_2">
<rect width="512" height="512" fill="white"/>
</clipPath>
</defs>
</svg>
