<svg width="512" height="512" viewBox="0 0 512 512" fill="none" xmlns="http://www.w3.org/2000/svg">
<g clip-path="url(#clip0_1334_46)">
<path d="M229.136 148.739C229.136 148.739 247.579 32.0655 328.271 0.953468C335.428 -1.80553 343.491 1.63047 346.555 8.66147C349.287 14.9315 347.243 22.2765 341.628 26.1815C322.584 39.4245 282.05 83.7525 285.486 148.739H229.136Z" fill="#5BBD4F"/>
<path d="M346.556 8.66103C343.492 1.62903 335.428 -1.80697 328.272 0.95303C323.678 2.72995 319.201 4.79746 314.868 7.14303C315.153 7.63003 315.42 8.13203 315.651 8.66103C318.383 14.931 316.339 22.276 310.723 26.181C291.679 39.424 251.145 83.753 254.581 148.739H285.486C282.05 83.753 322.584 39.424 341.628 26.181C347.243 22.276 349.288 14.931 346.556 8.66103Z" fill="#50A645"/>
<path d="M322.962 177.786H189.038V165.166C189.038 153.032 198.875 143.195 211.009 143.195H300.991C313.125 143.195 322.962 153.032 322.962 165.166V177.786Z" fill="#64CC56"/>
<path d="M300.991 143.195H270.086C282.22 143.195 292.057 153.032 292.057 165.166V177.786H322.962V165.166C322.962 153.032 313.125 143.195 300.991 143.195Z" fill="#5BBD4F"/>
<path d="M327.719 512H184.281C101.007 512 33.5 444.493 33.5 361.219V324.882C33.5 241.608 101.007 174.101 184.281 174.101H327.718C410.992 174.101 478.499 241.608 478.499 324.882V361.219C478.5 444.493 410.993 512 327.719 512Z" fill="#F57C00"/>
<path d="M327.725 174.101H296.822C380.093 174.101 447.597 241.611 447.597 324.889V361.213C447.597 444.49 380.093 512 296.822 512H327.725C410.996 512 478.5 444.49 478.5 361.212V324.888C478.5 241.611 410.996 174.101 327.725 174.101Z" fill="#EF6C00"/>
<path d="M256.139 512H255.862C187.878 512 132.766 456.888 132.766 388.904V297.197C132.766 229.213 187.878 174.101 255.862 174.101H256.139C324.123 174.101 379.235 229.213 379.235 297.197V388.904C379.235 456.888 324.123 512 256.139 512Z" fill="#FF9800"/>
<path d="M256.106 174.101H255.894C250.697 174.101 245.576 174.427 240.548 175.052C301.308 182.607 348.332 234.43 348.332 297.241V388.861C348.332 451.672 301.308 503.495 240.548 511.05C245.576 511.675 250.697 512.001 255.894 512.001H256.106C324.108 512.001 379.235 456.869 379.235 388.861V297.241C379.235 229.232 324.108 174.101 256.106 174.101Z" fill="#FB8C00"/>
</g>
<defs>
<clipPath id="clip0_1334_46">
<rect width="512" height="512" fill="white"/>
</clipPath>
</defs>
</svg>
