<svg width="512" height="512" viewBox="0 0 512 512" fill="none" xmlns="http://www.w3.org/2000/svg">
<g clip-path="url(#clip0_1334_2)">
<path d="M181.298 364.08C281.426 364.08 362.596 295.409 362.596 210.699C362.596 125.989 281.426 57.3184 181.298 57.3184C81.1699 57.3184 0 125.989 0 210.699C0 295.409 81.1699 364.08 181.298 364.08Z" fill="#F44336"/>
<path d="M181.298 57.3184C176.092 57.3184 170.94 57.5144 165.845 57.8784C258.738 64.5134 331.69 130.393 331.69 210.699C331.69 291.91 282.583 358.369 165.845 363.721C170.992 363.959 176.145 364.079 181.298 364.08C309.181 364.08 362.596 295.409 362.596 210.699C362.596 125.989 281.426 57.3184 181.298 57.3184Z" fill="#E53935"/>
<path d="M330.702 512C430.83 512 512 443.329 512 358.619C512 273.909 430.83 205.238 330.702 205.238C230.574 205.238 149.404 273.909 149.404 358.619C149.404 443.329 230.574 512 330.702 512Z" fill="#F47066"/>
<path d="M330.702 205.238C325.496 205.238 320.344 205.434 315.249 205.798C408.142 212.433 481.094 278.313 481.094 358.619C481.094 439.83 431.987 506.289 315.249 511.641C320.397 511.879 325.549 511.999 330.702 512C458.585 512 512 443.329 512 358.619C512 273.909 430.83 205.238 330.702 205.238Z" fill="#F4665D"/>
<path d="M197.781 135.984H164.815V16.483C164.815 7.38 172.195 0 181.298 0C190.401 0 197.781 7.38 197.781 16.483V135.984Z" fill="#50A645"/>
<path d="M293.023 82.443C293.023 72.239 270.653 63.967 243.058 63.967C241.677 63.967 206.545 49.918 181.297 49.918C156.049 49.918 120.918 63.967 119.536 63.967C91.9413 63.967 69.5713 72.239 69.5713 82.443C69.5713 88.643 77.8343 94.128 90.5073 97.478C92.8323 98.093 93.6193 100.967 91.9213 102.67C84.9763 109.633 81.9893 116.085 84.6863 120.197C88.6053 126.172 103.383 125.469 120.856 119.318C123.41 118.419 125.791 121.006 124.7 123.484C119.605 135.051 119.592 144.436 125.673 147.13C132.896 150.33 146.472 143.099 158.724 130.337C160.485 128.503 163.588 129.504 163.982 132.017C166.389 147.384 173.343 158.493 181.55 158.493C189.78 158.493 196.749 147.324 199.138 131.892C199.527 129.379 202.63 128.373 204.394 130.205C216.62 142.902 230.142 150.085 237.346 146.894C243.458 144.186 243.414 134.719 238.241 123.072C237.141 120.595 239.521 118.001 242.079 118.898C259.491 125.004 274.2 125.688 278.109 119.729C280.765 115.679 277.904 109.36 271.182 102.518C269.509 100.815 270.288 97.971 272.592 97.345C284.98 93.982 293.023 88.56 293.023 82.443Z" fill="#64CC56"/>
<path d="M211.176 118.898C208.618 118.001 206.238 120.595 207.338 123.072C209.557 128.068 210.824 132.657 211.075 136.489C221.283 145.147 231.441 149.511 237.349 146.894C243.348 144.236 243.404 135.061 238.512 123.709C231.724 124.382 221.971 122.683 211.176 118.898ZM272.593 97.345C284.981 93.983 293.023 88.561 293.023 82.443C293.023 72.239 270.653 63.967 243.058 63.967C241.677 63.967 206.545 49.918 181.297 49.918C176.411 49.918 171.154 50.448 165.844 51.297C187.973 54.834 211.038 63.967 212.152 63.967C239.747 63.967 262.117 72.239 262.117 82.443C262.117 88.561 254.075 93.983 241.687 97.345C239.383 97.97 238.604 100.815 240.277 102.518C246.999 109.36 249.861 115.679 247.205 119.729C247.046 119.966 246.872 120.191 246.683 120.404C262.037 125.071 274.552 125.155 278.111 119.729C280.767 115.679 277.906 109.36 271.183 102.518C269.51 100.814 270.289 97.97 272.593 97.345Z" fill="#5BBD4F"/>
<path d="M318.147 450.909C314.113 465.141 299.303 473.408 285.074 469.374C145.82 423.79 174.104 299.061 241.408 258.227C301.318 219.078 335.136 280.945 276.463 302.106C266.677 305.635 257.924 311.691 251.797 320.099C244.981 329.453 240.926 340.859 239.51 354.529C234.983 398.24 298.509 417.487 299.761 417.858C313.944 421.923 322.174 436.702 318.147 450.909ZM343.257 450.909C347.291 465.141 362.101 473.408 376.33 469.374C515.584 423.789 487.3 299.061 419.996 258.227C360.086 219.078 326.268 280.945 384.941 302.106C394.727 305.636 403.48 311.691 409.607 320.099C416.423 329.453 420.478 340.859 421.894 354.529C426.421 398.24 362.895 417.487 361.644 417.858C347.46 421.923 339.23 436.702 343.257 450.909Z" fill="#F44336"/>
<path d="M301.893 410.667C301.305 410.492 243.091 392.752 246.97 355.301C248.257 342.873 251.819 332.803 257.859 324.515C262.856 317.658 270.17 312.348 279.008 309.161C299.873 301.636 312.744 288.303 314.321 272.581C315.499 260.83 309.938 250.008 299.444 243.633C283.435 233.907 260.252 236.99 237.41 251.881C197.737 276.013 173.677 324.503 178.89 369.846C182.133 398.044 199.937 449.396 282.742 476.502C282.837 476.533 282.932 476.563 283.029 476.59C286.087 477.459 289.25 477.902 292.429 477.905C298.202 477.905 303.91 476.432 309.09 473.54C317.087 469.076 322.866 461.765 325.363 452.954C330.503 434.82 319.944 415.841 301.893 410.667ZM310.932 448.864C310.248 451.303 309.087 453.583 307.515 455.57C305.944 457.558 303.994 459.214 301.779 460.443C297.36 462.926 292.137 463.556 287.255 462.196C231.868 444.024 198.68 410.623 193.793 368.132C189.221 328.371 210.4 285.813 245.3 264.639C245.371 264.595 245.442 264.551 245.512 264.505C263.434 252.795 280.683 249.786 291.657 256.453C297.173 259.804 299.993 265.137 299.397 271.085C298.434 280.685 288.911 289.644 273.92 295.05C262.251 299.258 252.506 306.392 245.736 315.681C238.201 326.022 233.596 338.832 232.05 353.756C226.9 403.478 294.737 424.191 297.694 425.067C307.884 427.988 313.822 438.663 310.932 448.864ZM423.995 251.88C401.153 236.99 377.968 233.906 361.96 243.632C351.467 250.007 345.905 260.829 347.083 272.581C348.659 288.302 361.53 301.635 382.396 309.16C391.235 312.348 398.548 317.657 403.544 324.514C409.584 332.803 413.147 342.873 414.434 355.3C418.314 392.757 360.1 410.491 359.577 410.647C341.46 415.84 330.901 434.819 336.041 452.953C338.538 461.764 344.317 469.075 352.314 473.539C357.494 476.431 363.202 477.904 368.975 477.904C372.114 477.904 375.273 477.468 378.375 476.589C378.472 476.562 378.567 476.532 378.662 476.501C461.467 449.395 479.27 398.043 482.514 369.845C487.729 324.502 463.668 276.013 423.995 251.88ZM467.612 368.132C462.725 410.623 429.537 444.024 374.15 462.196C369.267 463.556 364.044 462.926 359.626 460.443C357.41 459.214 355.46 457.557 353.889 455.57C352.318 453.582 351.157 451.302 350.473 448.863C347.582 438.662 353.52 427.988 363.776 425.048C366.666 424.191 434.506 403.493 429.355 353.755C427.809 338.833 423.205 326.023 415.668 315.681C408.9 306.392 399.154 299.258 387.485 295.05C372.494 289.644 362.97 280.685 362.007 271.085C361.411 265.136 364.233 259.803 369.747 256.452C380.725 249.784 397.973 252.795 415.893 264.504C415.963 264.55 416.034 264.594 416.105 264.638C451.005 285.813 472.185 328.371 467.612 368.132Z" fill="#E53935"/>
<path d="M259.772 285.165C260.475 285.988 261.349 286.648 262.333 287.1C263.317 287.553 264.387 287.786 265.47 287.785C266.904 287.784 268.308 287.373 269.515 286.599C270.723 285.825 271.683 284.721 272.282 283.418C272.881 282.115 273.093 280.667 272.895 279.247C272.696 277.827 272.094 276.493 271.16 275.405L265.455 268.748C264.818 267.985 264.037 267.357 263.156 266.9C262.274 266.442 261.311 266.164 260.322 266.082C259.332 265.999 258.336 266.114 257.391 266.419C256.446 266.725 255.572 267.215 254.818 267.861C254.064 268.507 253.446 269.297 253 270.184C252.553 271.071 252.287 272.037 252.217 273.028C252.148 274.018 252.275 275.013 252.592 275.954C252.91 276.895 253.411 277.763 254.067 278.509L259.772 285.165ZM220.78 310.012L228.122 314.804C228.946 315.343 229.869 315.714 230.837 315.896C231.806 316.078 232.8 316.068 233.764 315.865C234.728 315.663 235.643 315.272 236.456 314.715C237.269 314.159 237.964 313.447 238.502 312.622C239.04 311.797 239.411 310.874 239.593 309.906C239.775 308.938 239.764 307.944 239.562 306.98C239.359 306.016 238.969 305.101 238.412 304.288C237.856 303.475 237.146 302.78 236.321 302.242L228.979 297.45C227.313 296.362 225.283 295.981 223.337 296.39C221.39 296.8 219.686 297.965 218.598 299.631C217.511 301.297 217.13 303.326 217.539 305.273C217.948 307.22 219.114 308.924 220.78 310.012ZM217.299 349.425L208.533 349.573C206.554 349.605 204.669 350.418 203.287 351.834C201.905 353.25 201.139 355.155 201.156 357.134C201.172 359.112 201.969 361.004 203.374 362.397C204.78 363.79 206.678 364.572 208.657 364.572L208.787 364.571L217.553 364.423C218.538 364.406 219.509 364.195 220.413 363.803C221.316 363.411 222.134 362.844 222.818 362.136C223.503 361.428 224.041 360.592 224.403 359.676C224.764 358.76 224.941 357.781 224.925 356.797C224.908 355.812 224.698 354.84 224.305 353.936C223.913 353.033 223.347 352.216 222.639 351.531C221.93 350.847 221.094 350.308 220.178 349.947C219.262 349.585 218.284 349.408 217.299 349.425ZM233.945 401.262L227.559 407.27C226.841 407.945 226.264 408.754 225.86 409.652C225.455 410.55 225.232 411.519 225.202 412.504C225.172 413.489 225.336 414.469 225.685 415.39C226.034 416.311 226.561 417.155 227.236 417.872C227.911 418.589 228.721 419.167 229.619 419.571C230.517 419.976 231.486 420.199 232.471 420.229C233.455 420.259 234.436 420.095 235.357 419.746C236.278 419.397 237.121 418.87 237.839 418.195L244.225 412.187C244.942 411.512 245.52 410.702 245.924 409.804C246.328 408.906 246.552 407.937 246.582 406.952C246.612 405.968 246.448 404.987 246.098 404.066C245.749 403.145 245.222 402.301 244.547 401.584C243.872 400.867 243.063 400.289 242.165 399.885C241.266 399.48 240.297 399.257 239.313 399.227C238.328 399.197 237.348 399.361 236.426 399.71C235.505 400.059 234.662 400.587 233.945 401.262ZM280.056 424.755C279.125 424.431 278.141 424.294 277.157 424.351C276.174 424.409 275.212 424.659 274.325 425.088C273.439 425.518 272.645 426.117 271.991 426.853C271.336 427.589 270.833 428.447 270.51 429.378L267.632 437.659C267.238 438.789 267.121 439.997 267.29 441.181C267.459 442.366 267.909 443.493 268.602 444.468C269.296 445.444 270.213 446.239 271.276 446.787C272.34 447.336 273.519 447.622 274.716 447.622C276.274 447.621 277.793 447.135 279.062 446.232C280.332 445.329 281.289 444.053 281.8 442.582L284.678 434.301C285.331 432.422 285.21 430.361 284.344 428.57C283.477 426.78 281.935 425.408 280.056 424.755ZM406.523 267.933C405.775 267.291 404.909 266.804 403.972 266.498C403.036 266.191 402.049 266.073 401.067 266.148C400.085 266.224 399.127 266.492 398.249 266.938C397.371 267.383 396.589 267.998 395.948 268.746L390.242 275.403C388.968 276.915 388.342 278.87 388.503 280.842C388.663 282.813 389.595 284.641 391.097 285.929C392.599 287.216 394.548 287.858 396.521 287.715C398.493 287.572 400.33 286.655 401.63 285.165L407.336 278.508C407.977 277.76 408.465 276.893 408.771 275.957C409.077 275.021 409.196 274.034 409.12 273.052C409.045 272.07 408.776 271.112 408.331 270.234C407.885 269.355 407.271 268.573 406.523 267.933ZM425.083 302.242C423.729 303.125 422.696 304.422 422.139 305.94C421.582 307.458 421.53 309.115 421.992 310.665C422.454 312.215 423.404 313.573 424.701 314.539C425.998 315.505 427.572 316.025 429.189 316.024C430.643 316.024 432.065 315.6 433.282 314.804L440.624 310.012C442.29 308.924 443.455 307.22 443.864 305.273C444.274 303.326 443.893 301.297 442.805 299.631C441.718 297.965 440.014 296.8 438.067 296.39C436.12 295.981 434.091 296.362 432.425 297.45L425.083 302.242ZM436.479 356.797C436.462 357.781 436.64 358.76 437.001 359.676C437.362 360.592 437.901 361.428 438.585 362.136C439.27 362.844 440.087 363.41 440.991 363.802C441.894 364.195 442.866 364.405 443.851 364.422L452.618 364.57L452.748 364.571C454.715 364.57 456.602 363.796 458.004 362.417C459.407 361.038 460.211 359.163 460.244 357.197C460.26 356.212 460.083 355.233 459.722 354.317C459.36 353.401 458.822 352.565 458.137 351.857C457.453 351.149 456.635 350.583 455.732 350.191C454.828 349.798 453.857 349.588 452.872 349.572L444.105 349.424C439.974 349.381 436.549 352.655 436.479 356.797ZM427.458 401.262C426.001 399.944 424.086 399.25 422.123 399.329C420.161 399.407 418.307 400.253 416.961 401.684C415.615 403.114 414.884 405.015 414.924 406.979C414.965 408.943 415.774 410.813 417.178 412.187L423.564 418.195C424.953 419.506 426.792 420.235 428.703 420.233C430.206 420.233 431.674 419.781 432.917 418.937C434.16 418.092 435.121 416.894 435.675 415.497C436.229 414.1 436.351 412.569 436.024 411.102C435.698 409.635 434.938 408.3 433.844 407.27L427.458 401.262ZM390.895 429.377C390.58 428.435 390.082 427.566 389.429 426.819C388.776 426.071 387.981 425.461 387.09 425.023C386.2 424.585 385.231 424.329 384.241 424.268C383.25 424.207 382.257 424.344 381.32 424.669C380.382 424.995 379.519 425.504 378.779 426.165C378.04 426.827 377.439 427.629 377.012 428.525C376.585 429.421 376.34 430.393 376.291 431.384C376.242 432.375 376.39 433.366 376.727 434.3L379.605 442.581C380.258 444.459 381.63 446.002 383.421 446.869C385.211 447.736 387.272 447.856 389.151 447.204C391.03 446.551 392.572 445.178 393.439 443.388C394.306 441.598 394.426 439.536 393.773 437.658L390.895 429.377Z" fill="#F4A09A"/>
</g>
<defs>
<clipPath id="clip0_1334_2">
<rect width="512" height="512" fill="white"/>
</clipPath>
</defs>
</svg>
