<svg width="512" height="512" viewBox="0 0 512 512" fill="none" xmlns="http://www.w3.org/2000/svg">
<g clip-path="url(#clip0_1335_14)">
<path d="M377.153 293.559L375.617 292.023C374.541 290.947 373.936 289.487 373.936 287.965V283.407C373.936 269.24 368.308 255.653 358.29 245.635L351.239 238.584C350.163 237.508 349.559 236.048 349.559 234.526C349.559 233.004 350.163 231.545 351.239 230.468L354.883 226.824C364.228 217.479 364.228 202.328 354.883 192.983L353.976 192.076C352.9 191 352.295 189.54 352.295 188.018V185.378C352.295 174.388 347.929 163.848 340.158 156.076L335.564 151.482C334.488 150.406 333.883 148.946 333.883 147.424V140.076C333.884 132.679 331.936 125.412 328.237 119.005L261.293 3.05625C258.94 -1.01875 253.059 -1.01875 250.707 3.05625L183.763 119.007C180.064 125.414 178.117 132.681 178.117 140.079V147.427C178.117 148.949 177.512 150.409 176.436 151.485L171.842 156.079C164.071 163.851 159.705 174.391 159.705 185.381V188.021C159.705 189.543 159.1 191.003 158.024 192.079L157.117 192.986C147.772 202.331 147.772 217.482 157.117 226.827L160.761 230.471C161.837 231.548 162.442 233.007 162.442 234.529C162.442 236.051 161.837 237.511 160.761 238.587L153.71 245.638C143.692 255.656 138.064 269.243 138.064 283.41V287.968C138.064 289.49 137.459 290.95 136.383 292.026L134.848 293.561C131.651 296.758 129.115 300.554 127.385 304.731C125.654 308.909 124.764 313.386 124.764 317.907C124.764 322.429 125.654 326.906 127.385 331.083C129.115 335.261 131.651 339.056 134.848 342.253L141.342 348.747C142.418 349.824 143.023 351.283 143.023 352.805V357.115C143.023 372.647 149.193 387.543 160.176 398.526L164.387 402.737C165.488 403.838 166.061 405.338 166.068 406.895C166.122 419.559 176.404 429.808 189.081 429.808H197.346C198.868 429.808 200.328 430.413 201.404 431.489L203.306 433.391C210.307 440.391 219.256 445.116 228.985 446.948H283.015C292.744 445.116 301.694 440.391 308.694 433.391L310.596 431.489C311.673 430.413 313.132 429.808 314.654 429.808H322.919C335.596 429.808 345.878 419.558 345.932 406.895C345.939 405.338 346.512 403.838 347.613 402.738L351.825 398.527C362.808 387.544 368.978 372.648 368.978 357.116V352.806C368.978 351.284 369.583 349.825 370.659 348.748L377.153 342.254C383.609 335.796 387.235 327.038 387.235 317.907C387.235 308.775 383.609 300.018 377.153 293.559Z" fill="#AAD880"/>
<path d="M168.742 417.568C172.607 424.848 180.265 429.805 189.081 429.805H197.346C198.868 429.805 200.328 430.41 201.404 431.486L203.306 433.388C210.306 440.388 219.256 445.113 228.985 446.945L235.602 435.36L228.985 425.799C207.259 427.838 182.62 425.074 168.742 417.568ZM377.153 293.559L375.617 292.023C374.541 290.947 373.936 289.487 373.936 287.965V283.407C373.936 269.24 368.308 255.653 358.29 245.635L351.239 238.584C350.163 237.508 349.559 236.048 349.559 234.526C349.559 233.004 350.163 231.545 351.239 230.468L354.883 226.824C364.228 217.479 364.228 202.328 354.883 192.983L353.976 192.076C352.9 191 352.295 189.54 352.295 188.018V185.378C352.295 174.388 347.929 163.848 340.158 156.076L335.564 151.482C334.488 150.406 333.883 148.946 333.883 147.424V140.076C333.883 132.679 331.936 125.412 328.237 119.005L261.293 3.05625C258.94 -1.01875 253.059 -1.01875 250.707 3.05625L241.344 19.2733L287.03 98.4043C290.729 104.811 292.676 112.078 292.676 119.475V126.823C292.676 128.345 293.281 129.805 294.357 130.881L298.951 135.475C302.799 139.323 305.851 143.891 307.934 148.919C310.016 153.947 311.088 159.335 311.088 164.777V167.417C311.088 168.939 311.693 170.399 312.769 171.475L313.676 172.382C323.021 181.727 323.021 196.878 313.676 206.223L310.032 209.867C308.956 210.944 308.352 212.403 308.352 213.925C308.352 215.447 308.956 216.907 310.032 217.983L317.083 225.034C327.101 235.052 332.729 248.639 332.729 262.806V267.364C332.729 268.886 333.334 270.346 334.41 271.422L335.946 272.958C339.143 276.155 341.68 279.951 343.41 284.128C345.14 288.305 346.031 292.782 346.031 297.304C346.031 301.825 345.14 306.302 343.41 310.479C341.68 314.657 339.143 318.452 335.946 321.649L329.452 328.143C328.376 329.22 327.771 330.679 327.771 332.201V336.511C327.771 352.043 321.601 366.939 310.618 377.922L306.406 382.133C305.305 383.234 304.732 384.734 304.725 386.29C304.673 398.517 295.086 408.493 283.016 409.167L267.454 435.363L283.016 446.948C292.745 445.116 301.695 440.391 308.695 433.391L310.597 431.489C311.673 430.413 313.133 429.808 314.655 429.808H322.92C335.597 429.808 345.879 419.558 345.933 406.895C345.94 405.338 346.513 403.838 347.614 402.738L351.826 398.527C362.809 387.544 368.979 372.648 368.979 357.116V352.806C368.979 351.284 369.584 349.825 370.66 348.748L377.154 342.254C380.351 339.057 382.887 335.261 384.618 331.084C386.348 326.907 387.238 322.43 387.238 317.908C387.237 308.776 383.61 300.018 377.153 293.559Z" fill="#9BD069"/>
<path d="M312.31 510.099L296.623 494.412C292.309 490.098 288.886 484.976 286.551 479.339C284.217 473.702 283.015 467.661 283.015 461.559V392.846L281.484 393.474C277.557 395.086 273.154 395.086 269.227 393.474L262.119 390.556C258.191 388.944 253.786 388.945 249.859 390.558L242.767 393.472C238.839 395.086 234.433 395.087 230.505 393.473L228.985 392.849V461.56C228.985 473.883 224.09 485.7 215.377 494.413L199.69 510.1C198.988 510.802 199.485 512.001 200.477 512.001H311.522C312.515 512 313.012 510.8 312.31 510.099Z" fill="#C17D4F"/>
<path d="M312.311 510.099L296.624 494.412C292.31 490.098 288.887 484.976 286.553 479.339C284.218 473.702 283.016 467.66 283.016 461.559V392.846L281.485 393.474C277.558 395.086 273.155 395.086 269.228 393.474L262.12 390.556C258.946 389.253 255.44 388.995 252.11 389.821V446.106C252.11 458.428 257.005 470.246 265.718 478.959L270.214 483.455C275.045 488.286 271.624 496.547 264.791 496.547H213.241L199.69 510.099C198.988 510.801 199.485 512 200.477 512H311.522C312.516 512 313.013 510.8 312.311 510.099Z" fill="#B16E3D"/>
<path d="M250.395 263.738C247.324 263.738 244.254 263.137 241.331 261.937L234.225 259.02C232.178 258.174 229.88 258.174 227.833 259.02L220.743 261.934C214.936 264.334 208.415 264.334 202.608 261.934L189.381 256.501C187.515 255.703 186.038 254.202 185.269 252.324C184.5 250.445 184.502 248.339 185.273 246.462C186.044 244.584 187.523 243.085 189.39 242.289C191.257 241.493 193.362 241.464 195.251 242.207L208.479 247.64C210.526 248.486 212.825 248.486 214.871 247.639L221.961 244.726C227.767 242.327 234.287 242.326 240.093 244.724L247.2 247.641C249.245 248.488 251.542 248.488 253.587 247.642L266.826 242.206C268.713 241.471 270.814 241.507 272.675 242.305C274.537 243.103 276.01 244.6 276.779 246.473C277.548 248.347 277.551 250.447 276.787 252.323C276.023 254.199 274.553 255.699 272.694 256.502L259.456 261.937C256.582 263.124 253.504 263.736 250.395 263.738ZM280.494 168.905C277.622 168.905 274.752 168.344 272.018 167.221L265.592 164.584C263.922 163.893 262.045 163.893 260.375 164.584L253.963 167.219C248.533 169.464 242.435 169.464 237.005 167.219L225.044 162.308C224.095 161.931 223.23 161.368 222.499 160.654C221.768 159.94 221.186 159.088 220.787 158.147C220.388 157.207 220.18 156.196 220.174 155.174C220.168 154.153 220.364 153.14 220.753 152.195C221.141 151.249 221.712 150.391 222.435 149.668C223.157 148.945 224.016 148.373 224.96 147.984C225.905 147.595 226.918 147.398 227.94 147.403C228.962 147.409 229.972 147.617 230.913 148.015L242.874 152.926C244.557 153.616 246.409 153.616 248.091 152.926L254.503 150.291C259.933 148.046 266.03 148.046 271.46 150.29L277.885 152.927C279.555 153.618 281.429 153.618 283.099 152.928L295.069 148.014C299.018 146.397 303.531 148.281 305.15 152.228C305.536 153.167 305.732 154.172 305.729 155.187C305.726 156.201 305.523 157.205 305.132 158.141C304.741 159.078 304.169 159.928 303.449 160.643C302.729 161.358 301.876 161.924 300.937 162.309L288.967 167.222C286.28 168.331 283.401 168.902 280.494 168.905ZM325.08 348.883C320.221 348.884 315.517 347.304 311.591 344.312L306.065 340.1C304.631 339 302.819 338.515 301.027 338.75L294.151 339.635C288.29 340.393 282.471 338.831 277.77 335.247L267.488 327.407C265.859 326.165 264.789 324.326 264.516 322.295C264.242 320.265 264.786 318.208 266.029 316.579C267.271 314.949 269.11 313.88 271.141 313.606C273.171 313.333 275.228 313.877 276.857 315.119L287.139 322.959C288.574 324.059 290.386 324.544 292.178 324.309L299.054 323.424C304.913 322.664 310.732 324.227 315.432 327.81L320.959 332.022C322.394 333.119 324.204 333.604 325.995 333.372L338.829 331.723C339.837 331.592 340.86 331.66 341.841 331.925C342.822 332.189 343.741 332.644 344.546 333.265C345.351 333.885 346.025 334.657 346.531 335.539C347.036 336.42 347.363 337.392 347.493 338.4C347.622 339.407 347.552 340.431 347.285 341.411C347.019 342.391 346.561 343.31 345.94 344.113C345.318 344.917 344.544 345.589 343.661 346.093C342.779 346.597 341.806 346.922 340.798 347.049L327.964 348.698C327 348.822 326.037 348.883 325.08 348.883Z" fill="#9BD069"/>
<path d="M347.477 338.402C346.933 334.17 343.059 331.177 338.829 331.724L327.77 333.145V336.509C327.77 340.687 327.323 344.819 326.457 348.841C326.961 348.81 327.463 348.762 327.964 348.699L340.798 347.05C341.804 346.92 342.776 346.594 343.656 346.09C344.536 345.585 345.309 344.912 345.929 344.109C346.549 343.306 347.005 342.389 347.271 341.409C347.536 340.43 347.606 339.408 347.477 338.402Z" fill="#8BC852"/>
<path d="M275.357 402.423C272.287 402.423 269.217 401.823 266.295 400.624L259.186 397.704C257.14 396.86 254.843 396.861 252.797 397.706L245.703 400.619C239.858 403.021 233.419 403.02 227.571 400.621L214.342 395.187C212.476 394.388 210.999 392.888 210.23 391.009C209.461 389.13 209.462 387.025 210.234 385.147C211.005 383.269 212.484 381.771 214.351 380.975C216.218 380.178 218.323 380.149 220.212 380.893L233.44 386.326C235.487 387.171 237.785 387.171 239.831 386.325L246.924 383.412C252.728 381.011 259.247 381.01 265.052 383.409L272.162 386.329C274.208 387.173 276.505 387.173 278.55 386.328L291.788 380.893C293.675 380.158 295.776 380.193 297.637 380.991C299.498 381.789 300.972 383.286 301.741 385.16C302.51 387.033 302.513 389.134 301.749 391.009C300.985 392.885 299.515 394.386 297.656 395.189L284.418 400.624C281.544 401.809 278.466 402.42 275.357 402.423Z" fill="#9BD069"/>
<path d="M222.785 512H244.493C252.168 502.599 257.654 491.611 260.405 479.718C260.867 477.721 260.517 475.623 259.432 473.885C258.347 472.147 256.615 470.911 254.619 470.449C250.463 469.484 246.312 472.077 245.35 476.235C242.054 490.475 234.21 502.799 222.785 512ZM249.535 416.402V448.449C249.535 450.498 250.349 452.463 251.798 453.912C253.247 455.361 255.212 456.175 257.261 456.175C259.31 456.175 261.275 455.361 262.724 453.912C264.173 452.463 264.987 450.498 264.987 448.449V416.402C264.987 414.353 264.173 412.388 262.724 410.939C261.275 409.49 259.31 408.676 257.261 408.676C255.212 408.676 253.247 409.49 251.798 410.939C250.349 412.388 249.535 414.353 249.535 416.402Z" fill="#B16E3D"/>
<path d="M264.987 448.451V416.404C264.988 414.912 264.556 413.452 263.745 412.2C262.934 410.949 261.777 409.959 260.416 409.35C259.054 408.741 257.545 408.539 256.071 408.769C254.597 408.999 253.222 409.651 252.11 410.646V446.108C252.11 449.066 252.393 451.995 252.942 454.859C254.105 455.642 255.458 456.094 256.858 456.167C258.258 456.24 259.652 455.931 260.889 455.272C262.127 454.614 263.162 453.631 263.884 452.43C264.606 451.228 264.987 449.853 264.987 448.451ZM236.769 496.548C233.023 502.342 228.324 507.538 222.783 512.001H244.491C248.378 507.246 251.708 502.061 254.414 496.548H236.769Z" fill="#985E33"/>
</g>
<defs>
<clipPath id="clip0_1335_14">
<rect width="512" height="512" fill="white"/>
</clipPath>
</defs>
</svg>
